<?xml version="1.0" encoding="utf-8"?>
<!-- Generator: Adobe Illustrator 18.0.0, SVG Export Plug-In . SVG Version: 6.00 Build 0)  -->
<!DOCTYPE svg PUBLIC "-//W3C//DTD SVG 1.1//EN" "http://www.w3.org/Graphics/SVG/1.1/DTD/svg11.dtd" [
	<!ENTITY ns_flows "http://ns.adobe.com/Flows/1.0/">
	<!ENTITY ns_extend "http://ns.adobe.com/Extensibility/1.0/">
	<!ENTITY ns_ai "http://ns.adobe.com/AdobeIllustrator/10.0/">
	<!ENTITY ns_graphs "http://ns.adobe.com/Graphs/1.0/">
]>
<svg version="1.1" id="Layer_1" xmlns:x="&ns_extend;" xmlns:i="&ns_ai;" xmlns:graph="&ns_graphs;"
	 xmlns="http://www.w3.org/2000/svg" xmlns:xlink="http://www.w3.org/1999/xlink" xmlns:a="http://ns.adobe.com/AdobeSVGViewerExtensions/3.0/"
	 x="0px" y="0px" viewBox="0 0 1400 1400" enable-background="new 0 0 1400 1400" xml:space="preserve">
<g>
	<rect fill="#FFFBCA" width="1400" height="1400"/>
	<rect x="28" y="28" fill="#76B13A" width="1344" height="1344"/>
	<path fill="#8BBB38" d="M1296.6,1034.3c-20.5-27.3-43.2-53.1-63.3-80.7c-30.3-41.7-55-88.4-65.7-138.8
		c-35.6-168,134.2-316.2,80.6-486.5c-24-76.1-93.7-132.2-170.4-154.1C902.1,124,741.4,229.7,581.3,284.4
		c-42.1,14.4-89.3,25.3-129.9,7.2c-58-26-76.8-94.7-114.2-140.8c-49.1-60.5-130.7-62.2-192.6-18.5c-34.9,24.7-56.4,61.3-69.8,101.3
		c-29.2,86.5,61,140,63.4,223.1c2.3,84-95.7,145.1-94.5,229.1c0.8,54.2,43,98,61.7,148.9c24.6,66.8,6.6,138.6,20.2,206.9
		c12.4,62.1,49.1,119.6,102,154.9c69,46.1,162.9,52.4,237,15.2c31.7-15.9,59.2-38.7,87.9-59.4s59.9-39.7,94.7-46.3
		c34.8-6.6,74.1,1.4,97.7,27.8c23.4,26.2,27.3,64.8,47.8,93.3c16.3,22.7,42,37.2,68.9,45.2c55.4,16.4,117.4,16.5,174.5,27.3
		c63.2,12,128.3,23.8,192.4,11.5c43.3-8.3,86.6-29.5,109.3-67.2c28.4-47.1,18.3-108.8-7.4-157.4
		C1320.7,1068,1309.1,1050.9,1296.6,1034.3z"/>
	<path fill="#97C93D" d="M1293.4,1186.4c5.8-12.5,9.4-26.5,7.4-40.2c-2.9-20.9-18.4-38.4-36.9-48.6s-39.7-14.1-60.6-16.8
		c-91.8-11.7-186.2-1.8-273.6,28.7c-18.4,6.4-38.3,15.4-46.1,33.3c-9,20.6,2.7,45.6,21,58.6s41.6,16.5,64,18.5
		c22.4,2,45.4,2.8,66.1,11.5c11.2,4.7,21.3,11.5,32.2,16.9c20.6,10.1,43.7,14.7,66.6,16.2
		C1196.5,1268.4,1266.8,1243.5,1293.4,1186.4z"/>
	<path fill="#97C93D" d="M254.9,125.8c-5.8-1.5-11.7-2.5-17.7-2.8c-37.3-2.1-74.2,19.1-94.2,50.6c-33,51.8-25.5,151.4,35.5,178.5
		c15.4,6.8,31.4,12.1,47.8,15.8c26,5.8,54.3,7.3,78.1-4.4c23.9-11.7,41.1-39.9,33.3-65.3c-2.3-7.6-6.6-14.4-10.2-21.5
		c-8.3-16.4-13.1-34.7-13.8-53.1c-0.8-18.8,3.9-40.9-4.6-58.1C299.4,145.8,275.4,131.3,254.9,125.8z"/>
	<path fill="#A8C038" d="M1264.5,1184.1c5-10.7,8-22.7,6.4-34.4c-2.5-17.9-15.8-32.9-31.6-41.7c-15.8-8.8-34-12.1-51.9-14.4
		c-78.7-10-159.7-1.5-234.6,24.6c-15.8,5.5-32.8,13.2-39.5,28.5c-7.7,17.7,2.3,39.1,18,50.2s35.7,14.2,54.8,15.8
		c19.2,1.7,38.9,2.4,56.7,9.9c9.6,4,18.3,9.9,27.6,14.5c17.7,8.7,37.4,12.6,57.1,13.9C1181.4,1254.5,1241.7,1233.1,1264.5,1184.1z"
		/>
	<g>
		<path fill="#97C93D" d="M666.5,692.6c-1.8-5.2-3.5-10.4-6.2-15.5c-8.6-16.2-14.8-33.4-16-51.8c-2.3-34.2,12.9-66.1,34.9-91.5
			c50.8-58.7,133.5-92.1,209.1-101.3c33.9-4.1,70.8-3.9,102.7,10c90.3,39.3,117,147.5,124.6,237.7c3.9,46.2,1.2,92.9-8,138.3
			c-7.7,38-20,102.5-49,130.7c-28.7,28-74.7,33.6-112.7,27.6c-38.7-6.1-89.7-30.7-92.1-75.7c-0.4-7.2-0.1-15.9-6.2-19.8
			c-7.2-4.7-16.2,1.5-24.5,3.2c-15.9,3.3-30.4-10.2-46.6-12.4c-8.1-1.1-16.3,0.7-24.5,1c-20.9,0.6-41.9-10-53.7-27.3
			s-14.2-40.7-6.1-60c5.5-13.1,15.7-25.7,13.4-39.7c-2.7-16.3-19.4-24.4-29.5-35.6C671.1,705,668.7,698.9,666.5,692.6z"/>
		<path fill="#FFCF79" d="M712.5,684.7c-18.9-20.6-23.6-52.1-17.2-82.9c12.8-62.2,75.3-101.7,132.8-116.7
			c36.9-9.6,75.2-18.5,113.6-13.7c29.5,3.7,58.5,15.4,79.9,36c28.1,27,41,66.3,46.5,104.9c9.4,65.9,17.1,138.9,3.4,204.5
			c-8,38.6-24.1,77.7-55.6,101.4c-31.5,23.7-81.1,26.2-107.7-2.9c-21.7-23.8-22.4-59.3-22.6-91.5c-0.2-32.2-2.8-68.2-26.6-89.8
			c-30.5-27.7-76.6-19.2-113.5-29.5C731.7,700.6,720.8,693.7,712.5,684.7z"/>
	</g>
	<g>
		<path fill="#97C93D" d="M680.7,957.3c-0.7,8.8-2.7,17.5-6.2,25.8c-14.6,35.2-51.1,56.2-87.3,68.1c-36.2,11.8-74.7,17.2-108.9,34
			c-55.6,27.3-101.3,84.6-163.2,82.1c-42.9-1.7-79.9-34.2-98.6-72.8s-22.4-82.7-24.1-125.5s-1.7-86.5-14-127.6
			c-11.8-39.2-34.6-76-35.1-117c-0.5-39.4,21.8-77.9,55.4-98.5c33.6-20.6,77.2-23.1,113.6-7.9c42.1,17.6,71.7,55.3,101.9,89.6
			c66.7,75.6,172.7,84.2,237.2,163.9C670.7,895.5,683.1,927.1,680.7,957.3z"/>
		<path fill="#71CAC4" d="M220.3,686c15.9-11.2,35.9-17.2,55.5-16.3c58.1,2.6,107,61.3,142.3,101.9c50.6,58.1,123.7,48.5,179.6,95.1
			c34.1,28.4,51.4,82.2,25.5,118.2c-19.1,26.6-54.5,35.4-87.1,38.4s-66.9,2.5-96,17.5c-32.5,16.8-56.1,54.2-92.6,63.1
			c-40.3,9.9-70.9-21-87.1-53.9c-15.4-31.2-23.9-67.6-23.5-102.5c0.3-28.7,9.9-55.2-0.3-83.5c-9.7-27-30-48-40.5-74.9
			c-8.6-22-11.5-47.1-3-69.1C198.4,706.1,208.2,694.5,220.3,686z"/>
		<path fill="#44C1C3" d="M316.7,1024.8c-9.9-9-11.1-24.3-8.5-37.4c2.6-13.1,8.3-25.7,9.4-39c0.5-6.6,0-13.2,1.1-19.7
			c2.3-13.2,11.8-24.7,24-30.4s26.5-6,39.3-1.8c11.4,3.7,21.4,10.7,32,16.2c31,16.3,69,22.1,92.5,48.1c3.9,4.3,7.4,9.7,6.9,15.4
			c-1.1,11.7-17.3,15.2-28.3,11.2c-11-4.1-20.6-12.4-32.3-13.4c-4.2-0.3-8.5,0.3-12.6,1.2c-16.9,3.7-33,11.3-46.6,22.1
			c-11.7,9.3-21.7,20.9-34.7,28.3C345.7,1032.8,327.8,1034.8,316.7,1024.8z"/>
	</g>
	<g>
		<polygon fill="#7A686A" points="1133,1166.4 1131.6,1166.8 1133,1184.7 1134.4,1166.8 		"/>
		<path fill="#625354" d="M1136.2,1167.4h-6.4c-0.6,0-1.1-0.5-1.1-1.1l0,0c0-0.6,0.5-1.1,1.1-1.1h6.4c0.6,0,1.1,0.5,1.1,1.1l0,0
			C1137.3,1167,1136.8,1167.4,1136.2,1167.4z"/>
		<circle fill="#FCD6D5" cx="1133" cy="1155.5" r="10.5"/>
	</g>
	<path fill="#A8C038" d="M251.7,142.4c-5-1.3-10.1-2.2-15.2-2.5c-32.2-1.8-64.1,16.5-81.4,43.7c-28.5,44.8-22.1,130.8,30.7,154.2
		c13.3,5.9,27.1,10.5,41.3,13.7c22.4,5,46.9,6.3,67.5-3.8c20.6-10.1,35.5-34.5,28.8-56.4c-2-6.6-5.7-12.4-8.8-18.5
		c-7.2-14.2-11.3-29.9-12-45.8c-0.7-16.2,3.4-35.3-4-50.2C290.2,159.6,269.5,147.1,251.7,142.4z"/>
	<g>
		<ellipse fill="#112113" cx="210.9" cy="251.6" rx="18.4" ry="6.5"/>
		<path fill="#FDD9CC" d="M210.9,258.1c0.9,0,1.8,0,2.7-0.1v-0.9v-165h-5.3v165v0.9C209.1,258.1,210,258.1,210.9,258.1z"/>
		<path fill="#F05352" d="M133,114.1c26,21.6,51.9-4.4,77.9,17.2c0-5.7,0-11.5,0-17.2c0-5.7,0-11.5,0-17.2
			C184.9,86.8,158.9,124.2,133,114.1z"/>
		<rect x="208.2" y="92.1" fill="#963C22" width="5.3" height="29.7"/>
		<rect x="208.2" y="151.5" fill="#963C22" width="5.3" height="29.7"/>
		<rect x="208.2" y="210.9" fill="#963C22" width="5.3" height="29.7"/>
		<rect x="208.2" y="121.8" fill="#FDD9CC" width="5.3" height="29.7"/>
		<rect x="208.2" y="181.2" fill="#FDD9CC" width="5.3" height="29.7"/>
	</g>
	<g>
		<path fill="#3E8941" d="M411.4,1130.1c-5.2,0.2-10.1,0.3-12.4-1.9c-2.4-2.3-2.5-7.3-2.6-12.6c-0.1-4.8-0.2-10.2-2.4-11.3
			c-0.9-0.4-2.3-0.2-4.1,0.8c-1.9,1-4.2,2.8-6.3,4.4c-2.2,1.7-4.5,3.5-6.6,4.6c-1.9,1-3.4,1.4-4.8,1.2c-3.2-0.4-6.2-4.4-9.3-8.6
			c-2.9-3.9-6.2-8.3-8.8-7.9c-2.4,0.4-3.8,5.4-5.2,10.2c-1.5,5.2-2.9,10-5.9,11.7c-3,1.6-7.9,0.1-13-1.4c-4.7-1.5-9.7-2.9-11.3-1.2
			c-1.8,1.9,0.1,7.1,1.8,11.7c1.8,4.9,3.5,9.6,2.1,12.5c-0.6,1.2-1.8,2.3-3.7,3.3c-2.1,1.1-4.8,2.1-7.5,3c-2.6,0.9-5.2,1.8-7.2,2.8
			c-1.8,1-2.8,2-3,3c-0.3,2.5,4.2,5.5,8.1,8.2c4.4,3,8.5,5.8,9.1,9.1c0.6,3.1-2.2,7.1-5.2,11.4c-2.8,4-6.1,8.6-4.8,11
			c1.3,2.3,6.9,2.1,11.8,2c5.2-0.2,10.1-0.3,12.4,1.9c2.4,2.3,2.5,7.3,2.6,12.6c0.1,4.8,0.2,10.2,2.4,11.3c0.9,0.4,2.3,0.2,4.1-0.8
			c1.9-1,4.2-2.8,6.3-4.4c2.2-1.7,4.5-3.5,6.6-4.6c1.9-1,3.4-1.4,4.8-1.2c3.2,0.4,6.2,4.4,9.3,8.6c2.9,3.9,6.2,8.3,8.8,7.9
			c2.3-0.4,3.8-5.4,5.2-10.2c1.5-5.2,2.9-10,5.9-11.7c3-1.6,7.9-0.1,13,1.4c4.3,1.3,8.8,2.7,10.8,1.6c0.2-0.1,0.4-0.2,0.5-0.4
			c1.8-1.9-0.1-7.1-1.8-11.7c-1.8-4.9-3.5-9.6-2.1-12.5c0.6-1.2,1.8-2.3,3.7-3.3c2.1-1.1,4.8-2.1,7.5-3c2.6-0.9,5.2-1.8,7.2-2.8
			c1.8-1,2.8-2,3-3c0.3-2.5-4.2-5.5-8.1-8.2c-4.4-3-8.5-5.8-9.1-9.1c-0.6-3.1,2.2-7.1,5.2-11.4c2.8-4,6.1-8.6,4.8-11
			C421.9,1129.8,416.3,1129.9,411.4,1130.1z"/>
		<path fill="#246C37" d="M383.8,1125.4c-2.2-1.1-5.4,0.5-8.5,2c-2.6,1.3-5.3,2.6-7.7,2.5c-2.5-0.1-5.2-1.8-7.7-3.4
			c-2.9-1.8-5.8-3.6-8-2.8c-2,0.7-3.3,4-4.4,7.2c-1,2.8-2,5.8-3.9,7.5c-1.8,1.6-4.7,2.3-7.6,2.9c-3.4,0.8-6.9,1.6-7.9,3.8
			c-1.1,2.2,0.5,5.4,2,8.5c1.3,2.6,2.6,5.3,2.5,7.7c-0.1,2.5-1.8,5.2-3.3,7.7c-1.8,2.9-3.6,5.8-2.8,8c0.8,2.2,4,3.3,7.2,4.4
			c2.8,1,5.8,2,7.5,3.9c1.6,1.8,2.3,4.7,2.9,7.6c0.8,3.4,1.6,6.8,3.8,7.9c2.2,1.1,5.4-0.5,8.5-2c2.6-1.3,5.3-2.6,7.7-2.5
			c2.5,0.1,5.2,1.8,7.7,3.4c2.9,1.8,5.8,3.6,8,2.8c2-0.7,3.3-4,4.4-7.2c0.9-2.5,1.8-5.1,3.2-6.8c0.2-0.2,0.4-0.5,0.7-0.7
			c1.8-1.6,4.7-2.3,7.6-2.9c3.4-0.8,6.9-1.6,7.9-3.8c1.1-2.2-0.5-5.4-2-8.5c-1.3-2.6-2.6-5.3-2.5-7.7c0.1-2.5,1.8-5.2,3.3-7.7
			c1.8-2.9,3.6-5.8,2.8-8c-0.8-2.2-4-3.3-7.2-4.4c-2.8-1-5.8-2-7.5-3.9c-1.6-1.8-2.3-4.7-2.9-7.6
			C386.8,1130,386,1126.5,383.8,1125.4z"/>
	</g>
	<g>
		<path fill="#3E8941" d="M292.3,1122c-5.2-2.6-10-5-11.1-8.4c-1.2-3.5,1.4-8.5,4.1-13.7c2.5-4.7,5.3-10.1,3.6-12.4
			c-0.7-0.9-2.2-1.4-4.5-1.4c-2.5,0-5.5,0.5-8.5,1c-3.1,0.5-6.2,1-8.9,1c-2.4,0-4.1-0.4-5.3-1.3c-2.9-2.1-3.7-7.6-4.6-13.3
			c-0.8-5.4-1.7-11.5-4.4-12.4c-2.5-0.8-6.6,3.3-10.5,7.2c-4.2,4.3-8.2,8.3-12,8.3c-3.8,0-7.8-4-12-8.3c-3.9-3.9-7.9-8-10.5-7.2
			c-2.7,0.9-3.6,7-4.4,12.4c-0.9,5.8-1.7,11.2-4.6,13.3c-1.2,0.9-3,1.3-5.3,1.3c-2.7,0-5.8-0.5-8.9-1c-3-0.5-6.1-1-8.5-1
			c-2.3,0-3.8,0.5-4.5,1.4c-1.6,2.2,1.2,7.6,3.6,12.4c2.7,5.2,5.3,10.2,4.1,13.7c-1.1,3.4-6,5.8-11.1,8.4
			c-4.9,2.4-10.5,5.2-10.5,8.2c0,3,5.6,5.7,10.5,8.2c5.2,2.6,10,5,11.1,8.4c1.2,3.5-1.4,8.5-4.2,13.7c-2.5,4.7-5.3,10.1-3.6,12.4
			c0.7,0.9,2.2,1.4,4.5,1.4c2.5,0,5.5-0.5,8.5-1c3.1-0.5,6.2-1,8.9-1c2.4,0,4.1,0.4,5.3,1.3c2.9,2.1,3.7,7.6,4.6,13.3
			c0.8,5.4,1.7,11.5,4.4,12.4c2.5,0.8,6.6-3.3,10.5-7.2c4.2-4.3,8.2-8.3,12-8.3c3.8,0,7.8,4,12,8.3c3.5,3.6,7.2,7.3,9.8,7.3
			c0.2,0,0.5,0,0.7-0.1c2.7-0.9,3.6-7,4.4-12.4c0.9-5.8,1.7-11.2,4.6-13.3c1.2-0.9,3-1.3,5.3-1.3c2.7,0,5.8,0.5,8.9,1
			c3,0.5,6.1,1,8.5,1c2.3,0,3.8-0.5,4.5-1.4c1.6-2.2-1.2-7.6-3.6-12.4c-2.7-5.2-5.3-10.2-4.1-13.7c1.1-3.4,6-5.8,11.1-8.4
			c4.9-2.4,10.5-5.2,10.5-8.2C302.8,1127.2,297.3,1124.5,292.3,1122z"/>
		<path fill="#246C37" d="M267.8,1102.8c-1.6-2.2-5.6-2.4-9.4-2.5c-3.2-0.1-6.6-0.3-8.9-1.7c-2.4-1.5-4.1-4.5-5.8-7.4
			c-1.9-3.2-3.8-6.6-6.3-7c-2.3-0.4-5.3,2.2-8.1,4.7c-2.5,2.3-5.1,4.6-7.7,5.2c-2.6,0.6-5.8-0.3-9-1.1c-3.7-1-7.6-2.1-9.7-0.5
			c-2.2,1.6-2.4,5.6-2.5,9.4c-0.1,3.2-0.3,6.6-1.7,8.9c-1.5,2.4-4.5,4.1-7.4,5.8c-3.2,1.9-6.6,3.8-7,6.3c-0.4,2.5,2.2,5.4,4.7,8.1
			c2.3,2.5,4.6,5,5.2,7.7c0.6,2.6-0.3,5.8-1.1,9c-1,3.7-2.1,7.5-0.5,9.7c1.6,2.2,5.6,2.4,9.4,2.5c3.2,0.1,6.6,0.3,8.9,1.7
			c2.4,1.5,4.1,4.5,5.8,7.4c1.9,3.2,3.8,6.6,6.3,7c2.3,0.4,5.3-2.2,8.1-4.7c2.2-2,4.4-4,6.8-4.9c0.3-0.1,0.7-0.2,1-0.3
			c2.6-0.6,5.8,0.3,9,1.1c3.7,1,7.6,2,9.7,0.5c2.2-1.6,2.4-5.6,2.5-9.4c0.1-3.2,0.3-6.6,1.7-8.9c1.5-2.4,4.5-4.1,7.4-5.8
			c3.2-1.9,6.6-3.8,7-6.3c0.4-2.5-2.2-5.4-4.7-8.1c-2.3-2.5-4.6-5-5.2-7.7c-0.6-2.6,0.3-5.8,1.1-9
			C268.4,1108.9,269.4,1105,267.8,1102.8z"/>
	</g>
	<g>
		<path fill="#3E8941" d="M196.5,986.8c-3.5,0.1-6.8,0.2-8.4-1.3c-1.6-1.6-1.7-5-1.8-8.6c-0.1-3.3-0.1-6.9-1.6-7.7
			c-0.6-0.3-1.6-0.1-2.8,0.6c-1.3,0.7-2.8,1.9-4.3,3c-1.5,1.2-3,2.4-4.5,3.1c-1.3,0.7-2.3,1-3.2,0.8c-2.2-0.3-4.2-3-6.3-5.8
			c-2-2.6-4.2-5.7-6-5.3c-1.6,0.3-2.6,3.7-3.5,6.9c-1,3.5-2,6.8-4,7.9c-2,1.1-5.3,0.1-8.8-1c-3.2-1-6.6-2-7.7-0.8
			c-1.2,1.3,0.1,4.8,1.2,7.9c1.2,3.3,2.4,6.5,1.4,8.5c-0.4,0.8-1.2,1.6-2.5,2.3c-1.4,0.8-3.3,1.4-5.1,2c-1.7,0.6-3.5,1.2-4.8,1.9
			c-1.3,0.7-1.9,1.3-2,2c-0.2,1.7,2.8,3.7,5.5,5.6c3,2,5.8,3.9,6.2,6.2c0.4,2.1-1.5,4.8-3.5,7.7c-1.9,2.7-4.1,5.8-3.3,7.4
			c0.9,1.6,4.6,1.5,8,1.3c3.5-0.1,6.8-0.2,8.4,1.3c1.6,1.6,1.7,5,1.8,8.6c0.1,3.3,0.1,6.9,1.6,7.7c0.6,0.3,1.6,0.1,2.8-0.6
			c1.3-0.7,2.8-1.9,4.3-3c1.5-1.2,3-2.4,4.5-3.1c1.3-0.7,2.3-1,3.2-0.8c2.2,0.3,4.2,3,6.3,5.8c2,2.6,4.2,5.6,6,5.3
			c1.6-0.3,2.6-3.7,3.5-6.9c1-3.5,2-6.8,4-7.9c2-1.1,5.3-0.1,8.8,1c2.9,0.9,6,1.8,7.3,1.1c0.1-0.1,0.2-0.2,0.3-0.3
			c1.2-1.3-0.1-4.8-1.2-7.9c-1.2-3.3-2.4-6.5-1.4-8.5c0.4-0.8,1.2-1.6,2.5-2.3c1.4-0.8,3.3-1.4,5.1-2c1.7-0.6,3.5-1.2,4.8-1.9
			c1.3-0.7,1.9-1.3,2-2c0.2-1.7-2.8-3.7-5.5-5.6c-3-2-5.8-3.9-6.2-6.2c-0.4-2.1,1.5-4.8,3.5-7.7c1.9-2.7,4.1-5.8,3.3-7.4
			C203.7,986.5,199.9,986.7,196.5,986.8z"/>
		<path fill="#246C37" d="M177.9,983.6c-1.5-0.7-3.7,0.4-5.8,1.4c-1.8,0.9-3.6,1.8-5.2,1.7c-1.7-0.1-3.5-1.2-5.2-2.3
			c-1.9-1.2-3.9-2.4-5.4-1.9c-1.3,0.5-2.2,2.7-3,4.9c-0.7,1.9-1.4,3.9-2.6,5.1c-1.2,1.1-3.2,1.5-5.1,2c-2.3,0.5-4.7,1.1-5.3,2.6
			c-0.7,1.5,0.4,3.7,1.4,5.8c0.9,1.8,1.8,3.6,1.7,5.2c-0.1,1.7-1.2,3.5-2.3,5.2c-1.2,1.9-2.4,3.9-1.9,5.4c0.5,1.5,2.7,2.2,4.9,3
			c1.9,0.7,3.9,1.4,5.1,2.6c1.1,1.2,1.5,3.2,2,5.1c0.5,2.3,1.1,4.6,2.6,5.3c1.5,0.7,3.7-0.4,5.8-1.4c1.8-0.9,3.6-1.8,5.2-1.7
			c1.7,0.1,3.5,1.2,5.2,2.3c1.9,1.2,3.9,2.4,5.4,1.9c1.3-0.5,2.2-2.7,3-4.9c0.6-1.7,1.2-3.4,2.2-4.6c0.1-0.2,0.3-0.3,0.4-0.5
			c1.2-1.1,3.2-1.5,5.1-2c2.3-0.5,4.6-1.1,5.3-2.6c0.7-1.5-0.4-3.7-1.4-5.8c-0.9-1.8-1.8-3.6-1.7-5.2c0.1-1.7,1.2-3.5,2.3-5.2
			c1.2-1.9,2.4-3.9,1.9-5.4c-0.5-1.5-2.7-2.2-4.9-3c-1.9-0.7-3.9-1.4-5.1-2.6c-1.1-1.2-1.5-3.2-2-5.1
			C179.9,986.7,179.4,984.3,177.9,983.6z"/>
	</g>
	<g>
		<path fill="#3E8941" d="M1211.2,677.7c-3.5,0.1-6.8,0.2-8.4-1.3c-1.6-1.6-1.7-5-1.8-8.6c-0.1-3.3-0.1-6.9-1.6-7.7
			c-0.6-0.3-1.6-0.1-2.8,0.6c-1.3,0.7-2.8,1.9-4.3,3c-1.5,1.2-3,2.4-4.5,3.1c-1.3,0.7-2.3,1-3.2,0.8c-2.2-0.3-4.2-3-6.3-5.8
			c-2-2.6-4.2-5.6-6-5.3c-1.6,0.3-2.6,3.7-3.5,6.9c-1,3.5-2,6.8-4,7.9s-5.3,0.1-8.8-1c-3.2-1-6.6-2-7.7-0.8
			c-1.2,1.3,0.1,4.8,1.2,7.9c1.2,3.3,2.4,6.5,1.4,8.5c-0.4,0.8-1.2,1.6-2.5,2.3c-1.4,0.8-3.3,1.4-5.1,2c-1.7,0.6-3.5,1.2-4.8,1.9
			c-1.3,0.7-1.9,1.3-2,2c-0.2,1.7,2.8,3.7,5.5,5.6c3,2,5.8,3.9,6.2,6.2c0.4,2.1-1.5,4.8-3.5,7.7c-1.9,2.7-4.1,5.8-3.3,7.4
			c0.9,1.6,4.6,1.5,8,1.3c3.5-0.1,6.8-0.2,8.4,1.3c1.6,1.6,1.7,5,1.8,8.6c0.1,3.3,0.1,6.9,1.6,7.7c0.6,0.3,1.6,0.1,2.8-0.6
			c1.3-0.7,2.8-1.9,4.3-3c1.5-1.2,3-2.4,4.5-3.1c1.3-0.7,2.3-1,3.2-0.8c2.2,0.3,4.2,3,6.3,5.8c2,2.6,4.2,5.6,6,5.3
			c1.6-0.3,2.6-3.7,3.5-6.9c1-3.5,2-6.8,4-7.9s5.3-0.1,8.8,1c2.9,0.9,6,1.8,7.3,1.1c0.1-0.1,0.2-0.2,0.3-0.3
			c1.2-1.3-0.1-4.8-1.2-7.9c-1.2-3.3-2.4-6.5-1.4-8.5c0.4-0.8,1.2-1.6,2.5-2.3c1.4-0.8,3.3-1.4,5.1-2c1.7-0.6,3.5-1.2,4.8-1.9
			c1.3-0.7,1.9-1.3,2-2c0.2-1.7-2.8-3.7-5.5-5.6c-3-2-5.8-3.9-6.2-6.2c-0.4-2.1,1.5-4.8,3.5-7.7c1.9-2.7,4.1-5.8,3.3-7.4
			C1218.3,677.4,1214.5,677.5,1211.2,677.7z"/>
		<path fill="#246C37" d="M1192.5,674.5c-1.5-0.7-3.7,0.4-5.8,1.4c-1.8,0.9-3.6,1.8-5.2,1.7c-1.7-0.1-3.5-1.2-5.2-2.3
			c-1.9-1.2-3.9-2.4-5.4-1.9c-1.3,0.5-2.2,2.7-3,4.9c-0.7,1.9-1.4,3.9-2.6,5.1c-1.2,1.1-3.2,1.5-5.1,2c-2.3,0.5-4.7,1.1-5.3,2.6
			c-0.7,1.5,0.4,3.7,1.4,5.8c0.9,1.8,1.8,3.6,1.7,5.2c-0.1,1.7-1.2,3.5-2.3,5.2c-1.2,1.9-2.4,3.9-1.9,5.4c0.5,1.5,2.7,2.2,4.9,3
			c1.9,0.7,3.9,1.4,5.1,2.6c1.1,1.2,1.5,3.2,2,5.1c0.5,2.3,1.1,4.6,2.6,5.3c1.5,0.7,3.7-0.4,5.8-1.4c1.8-0.9,3.6-1.8,5.2-1.7
			c1.7,0.1,3.5,1.2,5.2,2.3c1.9,1.2,3.9,2.4,5.4,1.9c1.3-0.5,2.2-2.7,3-4.9c0.6-1.7,1.2-3.4,2.2-4.6c0.1-0.2,0.3-0.3,0.4-0.5
			c1.2-1.1,3.2-1.5,5.1-2c2.3-0.5,4.6-1.1,5.3-2.6c0.7-1.5-0.4-3.7-1.4-5.8c-0.9-1.8-1.8-3.6-1.7-5.2c0.1-1.7,1.2-3.5,2.3-5.2
			c1.2-1.9,2.4-3.9,1.9-5.4c-0.5-1.5-2.7-2.2-4.9-3c-1.9-0.7-3.9-1.4-5.1-2.6c-1.1-1.2-1.5-3.2-2-5.1
			C1194.5,677.6,1194,675.2,1192.5,674.5z"/>
	</g>
	<g>
		<path fill="#3E8941" d="M697.4,726.4c-2.3,1.3-4.5,2.5-6.1,2c-1.6-0.5-2.8-2.8-4.1-5.2c-1.1-2.2-2.4-4.7-3.7-4.6
			c-0.5,0-1.1,0.4-1.7,1.3c-0.6,0.9-1.3,2.2-1.9,3.5c-0.6,1.3-1.3,2.6-1.9,3.6c-0.6,0.9-1.3,1.4-1.9,1.7c-1.6,0.5-3.9-0.6-6.3-1.8
			c-2.2-1.1-4.8-2.4-5.8-1.6c-1,0.7-0.5,3.4,0,5.9c0.5,2.7,1,5.3,0,6.7s-3.6,1.9-6.3,2.3c-2.5,0.4-5.1,0.9-5.5,2.1
			c-0.4,1.3,1.7,3.2,3.5,4.9c2,1.8,3.8,3.6,3.8,5.3c0,0.7-0.3,1.5-0.9,2.4c-0.7,1-1.7,2.1-2.7,3.1c-1,1-2,2-2.6,3
			c-0.6,0.9-0.8,1.6-0.7,2.1c0.4,1.2,3.2,1.6,5.6,1.9c2.7,0.4,5.3,0.7,6.3,2.1c1,1.3,0.6,3.8,0.2,6.4c-0.4,2.5-0.8,5.3,0.3,6.1
			c1.1,0.8,3.6-0.6,5.9-1.8c2.3-1.3,4.5-2.5,6.1-2c1.6,0.5,2.8,2.8,4.1,5.2c1.1,2.2,2.4,4.7,3.7,4.6c0.5,0,1.1-0.4,1.7-1.3
			c0.6-0.9,1.3-2.2,1.9-3.5c0.6-1.3,1.3-2.6,1.9-3.6c0.6-0.9,1.3-1.4,1.9-1.7c1.6-0.5,3.9,0.6,6.3,1.8c2.2,1.1,4.8,2.4,5.8,1.6
			c1-0.7,0.5-3.4,0-5.9c-0.5-2.7-1-5.3,0-6.7c1-1.4,3.6-1.9,6.3-2.3c2.3-0.4,4.7-0.8,5.3-1.8c0.1-0.1,0.1-0.2,0.1-0.3
			c0.4-1.3-1.7-3.2-3.5-4.9c-2-1.8-3.8-3.6-3.8-5.3c0-0.7,0.3-1.5,0.9-2.4c0.7-1,1.7-2.1,2.7-3.1c1-1,2-2,2.6-3
			c0.6-0.9,0.8-1.6,0.7-2.1c-0.4-1.2-3.2-1.6-5.6-1.9c-2.7-0.4-5.3-0.7-6.3-2.1c-1-1.3-0.6-3.8-0.2-6.4c0.4-2.5,0.8-5.3-0.3-6.1
			C702.2,723.8,699.7,725.2,697.4,726.4z"/>
		<path fill="#246C37" d="M683.7,730.6c-1.3,0-2.4,1.5-3.4,2.9c-0.9,1.2-1.8,2.4-3,2.9c-1.2,0.5-2.8,0.4-4.3,0.2
			c-1.7-0.2-3.5-0.3-4.3,0.5c-0.7,0.8-0.6,2.6-0.4,4.3c0.2,1.5,0.4,3.1-0.1,4.3c-0.4,1.2-1.6,2.1-2.8,3.1c-1.4,1.1-2.8,2.3-2.7,3.5
			c0,1.3,1.5,2.4,2.9,3.4c1.2,0.9,2.4,1.8,2.9,3c0.5,1.2,0.4,2.8,0.2,4.3c-0.2,1.7-0.3,3.5,0.5,4.3c0.8,0.8,2.6,0.6,4.3,0.4
			c1.5-0.2,3.1-0.4,4.3,0.1c1.2,0.4,2.1,1.6,3.1,2.8c1.1,1.4,2.3,2.8,3.5,2.7c1.3,0,2.4-1.5,3.4-2.9c0.9-1.2,1.8-2.4,3-2.9
			c1.2-0.5,2.8-0.4,4.3-0.2c1.7,0.2,3.5,0.3,4.3-0.5c0.7-0.8,0.6-2.6,0.4-4.3c-0.2-1.3-0.4-2.7-0.1-3.9c0-0.2,0.1-0.3,0.1-0.5
			c0.4-1.2,1.6-2.1,2.8-3.1c1.4-1.1,2.8-2.3,2.7-3.5c0-1.3-1.5-2.4-2.9-3.4c-1.2-0.9-2.4-1.8-2.9-3c-0.5-1.2-0.4-2.8-0.2-4.3
			c0.2-1.7,0.3-3.5-0.5-4.3c-0.8-0.8-2.6-0.6-4.3-0.4c-1.5,0.2-3.1,0.4-4.3-0.1c-1.2-0.4-2.1-1.6-3.1-2.8
			C686.1,732,685,730.6,683.7,730.6z"/>
	</g>
	<g>
		<path fill="#3E8941" d="M210.4,817.7c-4.4,0.2-8.6,0.3-10.6-1.6c-2.1-2-2.2-6.3-2.2-10.8c-0.1-4.1-0.1-8.8-2.1-9.7
			c-0.8-0.4-2-0.2-3.6,0.7c-1.7,0.9-3.6,2.4-5.4,3.8c-1.9,1.5-3.9,3-5.6,4c-1.6,0.9-3,1.2-4.1,1.1c-2.8-0.4-5.3-3.8-8-7.4
			c-2.5-3.4-5.4-7.2-7.5-6.8c-2,0.4-3.3,4.6-4.5,8.7c-1.3,4.4-2.5,8.6-5.1,10c-2.6,1.4-6.7,0.1-11.2-1.2c-4.1-1.2-8.3-2.5-9.7-1
			c-1.5,1.6,0.1,6.1,1.5,10c1.5,4.2,3,8.2,1.8,10.7c-0.5,1.1-1.5,2-3.1,2.9c-1.8,1-4.1,1.8-6.4,2.6c-2.2,0.8-4.5,1.5-6.1,2.4
			c-1.6,0.9-2.4,1.7-2.5,2.6c-0.3,2.1,3.6,4.7,7,7.1c3.8,2.6,7.3,5,7.9,7.8c0.5,2.7-1.9,6.1-4.5,9.8c-2.4,3.5-5.2,7.4-4.1,9.4
			c1.1,2,5.9,1.8,10.1,1.7c4.4-0.2,8.6-0.3,10.6,1.6c2.1,2,2.2,6.3,2.2,10.8c0.1,4.1,0.1,8.8,2.1,9.7c0.8,0.4,2,0.2,3.6-0.7
			c1.7-0.9,3.6-2.4,5.4-3.8c1.9-1.5,3.9-3,5.6-4c1.6-0.9,3-1.2,4.1-1.1c2.8,0.4,5.3,3.8,8,7.4c2.5,3.4,5.4,7.2,7.5,6.8
			c2-0.4,3.3-4.6,4.4-8.7c1.3-4.4,2.5-8.6,5.1-10s6.7-0.1,11.2,1.2c3.7,1.1,7.5,2.3,9.3,1.4c0.2-0.1,0.3-0.2,0.4-0.3
			c1.5-1.6-0.1-6.1-1.5-10c-1.5-4.2-3-8.2-1.8-10.7c0.5-1.1,1.5-2,3.1-2.9c1.8-1,4.1-1.8,6.4-2.6c2.2-0.8,4.5-1.5,6.1-2.4
			c1.6-0.9,2.4-1.7,2.5-2.6c0.3-2.1-3.6-4.7-7-7.1c-3.8-2.6-7.3-5-7.9-7.8c-0.5-2.7,1.9-6.1,4.5-9.8c2.4-3.5,5.2-7.4,4.1-9.4
			C219.5,817.4,214.7,817.6,210.4,817.7z"/>
		<path fill="#246C37" d="M186.8,813.7c-1.9-0.9-4.6,0.4-7.3,1.7c-2.2,1.1-4.6,2.2-6.6,2.1c-2.2-0.1-4.4-1.5-6.6-2.9
			c-2.4-1.5-5-3.1-6.8-2.4c-1.7,0.6-2.8,3.4-3.8,6.2c-0.8,2.4-1.7,5-3.3,6.4c-1.5,1.4-4.1,2-6.5,2.5c-2.9,0.7-5.9,1.4-6.8,3.2
			c-0.9,1.9,0.4,4.6,1.7,7.3c1.1,2.2,2.2,4.6,2.1,6.6c-0.1,2.2-1.5,4.4-2.9,6.6c-1.5,2.4-3.1,5-2.4,6.8c0.7,1.8,3.5,2.8,6.2,3.8
			c2.4,0.8,4.9,1.7,6.4,3.3c1.4,1.5,2,4.1,2.5,6.5c0.7,2.9,1.3,5.9,3.2,6.8c1.9,0.9,4.6-0.4,7.3-1.7c2.2-1.1,4.6-2.2,6.6-2.1
			c2.2,0.1,4.4,1.5,6.6,2.9c2.4,1.5,5,3.1,6.8,2.4c1.7-0.6,2.8-3.4,3.8-6.2c0.7-2.1,1.5-4.3,2.8-5.8c0.2-0.2,0.4-0.4,0.6-0.6
			c1.5-1.4,4.1-2,6.5-2.5c2.9-0.7,5.9-1.4,6.8-3.2c0.9-1.9-0.4-4.6-1.7-7.3c-1.1-2.2-2.2-4.6-2.1-6.6c0.1-2.2,1.5-4.4,2.9-6.6
			c1.5-2.4,3.1-5,2.4-6.8c-0.7-1.8-3.5-2.8-6.2-3.8c-2.4-0.8-4.9-1.7-6.4-3.3c-1.4-1.5-2-4.1-2.5-6.5
			C189.4,817.6,188.7,814.6,186.8,813.7z"/>
	</g>
	<g>
		<path fill="#3E8941" d="M324.7,90.9c-3.5,0.1-6.8,0.2-8.4-1.3c-1.6-1.6-1.7-4.9-1.8-8.5c-0.1-3.2-0.1-6.9-1.6-7.6
			c-0.6-0.3-1.6-0.1-2.8,0.6c-1.3,0.7-2.8,1.9-4.3,3c-1.5,1.2-3,2.4-4.4,3.1c-1.3,0.7-2.3,1-3.2,0.8c-2.2-0.3-4.2-3-6.3-5.8
			c-2-2.6-4.2-5.6-5.9-5.3c-1.6,0.3-2.6,3.6-3.5,6.9c-1,3.5-2,6.8-4,7.9c-2,1.1-5.3,0.1-8.8-1c-3.2-1-6.5-2-7.7-0.8
			c-1.2,1.3,0.1,4.8,1.2,7.9c1.2,3.3,2.3,6.5,1.4,8.5c-0.4,0.8-1.2,1.6-2.5,2.2c-1.4,0.8-3.3,1.4-5.1,2c-1.7,0.6-3.5,1.2-4.8,1.9
			c-1.2,0.7-1.9,1.3-2,2c-0.2,1.7,2.8,3.7,5.5,5.6c3,2,5.8,3.9,6.2,6.1c0.4,2.1-1.5,4.8-3.5,7.7c-1.9,2.7-4.1,5.8-3.2,7.4
			c0.9,1.6,4.6,1.5,8,1.3c3.5-0.1,6.8-0.2,8.4,1.3c1.6,1.6,1.7,5,1.8,8.5c0.1,3.2,0.1,6.9,1.6,7.6c0.6,0.3,1.6,0.1,2.8-0.6
			c1.3-0.7,2.8-1.9,4.3-3c1.5-1.2,3-2.4,4.4-3.1c1.3-0.7,2.3-1,3.2-0.8c2.2,0.3,4.2,3,6.3,5.8c2,2.6,4.2,5.6,5.9,5.3
			c1.6-0.3,2.6-3.6,3.5-6.9c1-3.5,2-6.8,4-7.9c2-1.1,5.3-0.1,8.8,1c2.9,0.9,5.9,1.8,7.3,1.1c0.1-0.1,0.2-0.2,0.3-0.3
			c1.2-1.3-0.1-4.8-1.2-7.9c-1.2-3.3-2.4-6.5-1.4-8.5c0.4-0.8,1.2-1.6,2.5-2.2c1.4-0.8,3.3-1.4,5.1-2c1.7-0.6,3.5-1.2,4.8-1.9
			c1.2-0.7,1.9-1.3,2-2c0.2-1.7-2.8-3.7-5.5-5.6c-3-2-5.8-3.9-6.2-6.1c-0.4-2.1,1.5-4.8,3.5-7.7c1.9-2.7,4.1-5.8,3.2-7.4
			C331.8,90.7,328,90.8,324.7,90.9z"/>
		<path fill="#246C37" d="M306,87.8c-1.5-0.7-3.6,0.3-5.7,1.4c-1.8,0.9-3.6,1.8-5.2,1.7c-1.7-0.1-3.5-1.2-5.2-2.3
			c-1.9-1.2-3.9-2.4-5.4-1.9c-1.3,0.5-2.2,2.7-3,4.9c-0.7,1.9-1.4,3.9-2.6,5c-1.2,1.1-3.2,1.5-5.1,2c-2.3,0.5-4.6,1.1-5.3,2.5
			c-0.7,1.5,0.3,3.7,1.4,5.7c0.9,1.8,1.8,3.6,1.7,5.2c-0.1,1.7-1.2,3.5-2.3,5.2c-1.2,1.9-2.4,3.9-1.9,5.4c0.5,1.5,2.7,2.2,4.9,3
			c1.9,0.7,3.9,1.4,5,2.6c1.1,1.2,1.5,3.2,2,5.1c0.5,2.3,1.1,4.6,2.5,5.3c1.5,0.7,3.6-0.3,5.7-1.4c1.8-0.9,3.6-1.8,5.2-1.7
			c1.7,0.1,3.5,1.2,5.2,2.3c1.9,1.2,3.9,2.4,5.4,1.9c1.3-0.5,2.2-2.7,3-4.9c0.6-1.7,1.2-3.4,2.2-4.6c0.1-0.2,0.3-0.3,0.4-0.5
			c1.2-1.1,3.2-1.5,5.1-2c2.3-0.5,4.6-1.1,5.3-2.5c0.7-1.5-0.3-3.7-1.4-5.7c-0.9-1.8-1.8-3.6-1.7-5.2c0.1-1.7,1.2-3.5,2.3-5.2
			c1.2-1.9,2.4-3.9,1.9-5.4c-0.5-1.5-2.7-2.2-4.9-3c-1.9-0.7-3.9-1.4-5-2.6c-1.1-1.2-1.5-3.2-2-5.1C308.1,90.8,307.5,88.5,306,87.8z
			"/>
	</g>
	<g>
		<path fill="#3E8941" d="M385.7,137.1c-2.3,0.1-4.4,0.2-5.4-0.8c-1.1-1-1.1-3.2-1.1-5.5c0-2.1-0.1-4.5-1.1-4.9
			c-0.4-0.2-1-0.1-1.8,0.4c-0.8,0.5-1.8,1.2-2.8,1.9c-1,0.8-2,1.5-2.9,2c-0.8,0.4-1.5,0.6-2.1,0.5c-1.4-0.2-2.7-1.9-4.1-3.8
			c-1.3-1.7-2.7-3.6-3.8-3.4c-1,0.2-1.7,2.4-2.3,4.4c-0.7,2.3-1.3,4.4-2.6,5.1c-1.3,0.7-3.4,0.1-5.7-0.6c-2.1-0.6-4.2-1.3-5-0.5
			c-0.8,0.8,0,3.1,0.8,5.1c0.8,2.2,1.5,4.2,0.9,5.5c-0.3,0.5-0.8,1-1.6,1.5c-0.9,0.5-2.1,0.9-3.3,1.3c-1.1,0.4-2.3,0.8-3.1,1.2
			c-0.8,0.4-1.2,0.9-1.3,1.3c-0.1,1.1,1.8,2.4,3.6,3.6c1.9,1.3,3.7,2.5,4,4c0.3,1.4-1,3.1-2.3,5c-1.2,1.8-2.7,3.8-2.1,4.8
			c0.6,1,3,0.9,5.2,0.9c2.3-0.1,4.4-0.2,5.4,0.8c1.1,1,1.1,3.2,1.1,5.5c0,2.1,0.1,4.5,1.1,4.9c0.4,0.2,1,0.1,1.8-0.4
			c0.8-0.5,1.8-1.2,2.8-1.9c1-0.8,2-1.5,2.9-2c0.8-0.4,1.5-0.6,2.1-0.5c1.4,0.2,2.7,1.9,4.1,3.8c1.3,1.7,2.7,3.6,3.8,3.4
			c1-0.2,1.7-2.4,2.3-4.4c0.7-2.3,1.3-4.4,2.6-5.1c1.3-0.7,3.4-0.1,5.7,0.6c1.9,0.6,3.8,1.2,4.7,0.7c0.1,0,0.2-0.1,0.2-0.2
			c0.8-0.8,0-3.1-0.8-5.1c-0.8-2.2-1.5-4.2-0.9-5.5c0.3-0.5,0.8-1,1.6-1.5c0.9-0.5,2.1-0.9,3.3-1.3c1.1-0.4,2.3-0.8,3.1-1.2
			c0.8-0.4,1.2-0.9,1.3-1.3c0.1-1.1-1.8-2.4-3.6-3.6c-1.9-1.3-3.7-2.5-4-4c-0.3-1.4,1-3.1,2.3-5c1.2-1.8,2.7-3.8,2.1-4.8
			C390.3,136.9,387.9,137,385.7,137.1z"/>
		<path fill="#246C37" d="M373.7,135c-1-0.5-2.4,0.2-3.7,0.9c-1.1,0.6-2.3,1.1-3.4,1.1c-1.1-0.1-2.3-0.8-3.4-1.5
			c-1.2-0.8-2.5-1.6-3.5-1.2c-0.9,0.3-1.4,1.7-1.9,3.2c-0.4,1.2-0.9,2.5-1.7,3.3c-0.8,0.7-2.1,1-3.3,1.3c-1.5,0.3-3,0.7-3.4,1.6
			c-0.5,1,0.2,2.4,0.9,3.7c0.6,1.1,1.1,2.3,1.1,3.4c-0.1,1.1-0.8,2.3-1.5,3.4c-0.8,1.2-1.6,2.5-1.2,3.5c0.3,0.9,1.8,1.4,3.2,1.9
			c1.2,0.4,2.5,0.9,3.3,1.7c0.7,0.8,1,2.1,1.3,3.3c0.3,1.5,0.7,3,1.6,3.4c1,0.5,2.4-0.2,3.7-0.9c1.1-0.6,2.3-1.1,3.4-1.1
			c1.1,0.1,2.3,0.8,3.4,1.5c1.2,0.8,2.5,1.6,3.5,1.2c0.9-0.3,1.4-1.7,1.9-3.2c0.4-1.1,0.8-2.2,1.4-3c0.1-0.1,0.2-0.2,0.3-0.3
			c0.8-0.7,2.1-1,3.3-1.3c1.5-0.3,3-0.7,3.4-1.6c0.5-1-0.2-2.4-0.9-3.7c-0.6-1.1-1.1-2.3-1.1-3.4c0.1-1.1,0.8-2.3,1.5-3.4
			c0.8-1.2,1.6-2.5,1.2-3.5c-0.3-0.9-1.8-1.4-3.2-1.9c-1.2-0.4-2.5-0.9-3.3-1.7c-0.7-0.8-1-2.1-1.3-3.3
			C375,137,374.6,135.5,373.7,135z"/>
	</g>
	<g>
		<path fill="#3E8941" d="M204.3,385.9c-2.3,0.1-4.4,0.2-5.4-0.8c-1.1-1-1.1-3.2-1.1-5.5c0-2.1-0.1-4.5-1.1-4.9
			c-0.4-0.2-1-0.1-1.8,0.4c-0.8,0.5-1.8,1.2-2.8,1.9c-1,0.8-2,1.5-2.9,2c-0.8,0.4-1.5,0.6-2.1,0.5c-1.4-0.2-2.7-1.9-4.1-3.8
			c-1.3-1.7-2.7-3.6-3.8-3.4c-1,0.2-1.7,2.4-2.3,4.4c-0.7,2.3-1.3,4.4-2.6,5.1c-1.3,0.7-3.4,0.1-5.7-0.6c-2.1-0.6-4.2-1.3-5-0.5
			c-0.8,0.8,0,3.1,0.8,5.1c0.8,2.2,1.5,4.2,0.9,5.5c-0.3,0.5-0.8,1-1.6,1.5c-0.9,0.5-2.1,0.9-3.3,1.3c-1.1,0.4-2.3,0.8-3.1,1.2
			c-0.8,0.4-1.2,0.9-1.3,1.3c-0.1,1.1,1.8,2.4,3.6,3.6c1.9,1.3,3.7,2.5,4,4c0.3,1.4-1,3.1-2.3,5c-1.2,1.8-2.7,3.8-2.1,4.8
			c0.6,1,3,0.9,5.2,0.9c2.3-0.1,4.4-0.2,5.4,0.8c1.1,1,1.1,3.2,1.1,5.5c0,2.1,0.1,4.5,1.1,4.9c0.4,0.2,1,0.1,1.8-0.4
			c0.8-0.5,1.8-1.2,2.8-1.9c1-0.8,2-1.5,2.9-2c0.8-0.4,1.5-0.6,2.1-0.5c1.4,0.2,2.7,1.9,4.1,3.8c1.3,1.7,2.7,3.6,3.8,3.4
			c1-0.2,1.7-2.4,2.3-4.4c0.7-2.3,1.3-4.4,2.6-5.1c1.3-0.7,3.4-0.1,5.7,0.6c1.9,0.6,3.8,1.2,4.7,0.7c0.1,0,0.2-0.1,0.2-0.2
			c0.8-0.8,0-3.1-0.8-5.1c-0.8-2.2-1.5-4.2-0.9-5.5c0.3-0.5,0.8-1,1.6-1.5c0.9-0.5,2.1-0.9,3.3-1.3c1.1-0.4,2.3-0.8,3.1-1.2
			c0.8-0.4,1.2-0.9,1.3-1.3c0.1-1.1-1.8-2.4-3.6-3.6c-1.9-1.3-3.7-2.5-4-4c-0.3-1.4,1-3.1,2.3-5c1.2-1.8,2.7-3.8,2.1-4.8
			C208.9,385.8,206.4,385.9,204.3,385.9z"/>
		<path fill="#246C37" d="M192.2,383.9c-1-0.5-2.4,0.2-3.7,0.9c-1.1,0.6-2.3,1.1-3.4,1.1c-1.1-0.1-2.3-0.8-3.4-1.5
			c-1.2-0.8-2.5-1.6-3.5-1.2c-0.9,0.3-1.4,1.7-1.9,3.2c-0.4,1.2-0.9,2.5-1.7,3.3c-0.8,0.7-2.1,1-3.3,1.3c-1.5,0.3-3,0.7-3.4,1.6
			c-0.5,1,0.2,2.4,0.9,3.7c0.6,1.1,1.1,2.3,1.1,3.4c-0.1,1.1-0.8,2.3-1.5,3.4c-0.8,1.2-1.6,2.5-1.2,3.5c0.3,0.9,1.8,1.4,3.2,1.9
			c1.2,0.4,2.5,0.9,3.3,1.7c0.7,0.8,1,2.1,1.3,3.3c0.3,1.5,0.7,3,1.6,3.4c1,0.5,2.4-0.2,3.7-0.9c1.1-0.6,2.3-1.1,3.4-1.1
			c1.1,0.1,2.3,0.8,3.4,1.5c1.2,0.8,2.5,1.6,3.5,1.2c0.9-0.3,1.4-1.7,1.9-3.2c0.4-1.1,0.8-2.2,1.4-3c0.1-0.1,0.2-0.2,0.3-0.3
			c0.8-0.7,2.1-1,3.3-1.3c1.5-0.3,3-0.7,3.4-1.6c0.5-1-0.2-2.4-0.9-3.7c-0.6-1.1-1.1-2.3-1.1-3.4c0.1-1.1,0.8-2.3,1.5-3.4
			c0.8-1.2,1.6-2.5,1.2-3.5c-0.3-0.9-1.8-1.4-3.2-1.9c-1.2-0.4-2.5-0.9-3.3-1.7c-0.7-0.8-1-2.1-1.3-3.3
			C193.5,385.9,193.2,384.4,192.2,383.9z"/>
	</g>
	<g>
		<path fill="#3E8941" d="M174.2,458.2c-3,0.1-5.8,0.2-7.1-1.1c-1.4-1.3-1.4-4.2-1.5-7.3c0-2.8-0.1-5.9-1.4-6.5
			c-0.5-0.3-1.3-0.1-2.4,0.5c-1.1,0.6-2.4,1.6-3.6,2.6c-1.3,1-2.6,2-3.8,2.7c-1.1,0.6-2,0.8-2.8,0.7c-1.9-0.3-3.6-2.5-5.4-5
			c-1.7-2.3-3.6-4.8-5.1-4.5c-1.4,0.2-2.2,3.1-3,5.9c-0.9,3-1.7,5.8-3.4,6.7c-1.7,0.9-4.5,0.1-7.5-0.8c-2.7-0.8-5.6-1.7-6.5-0.7
			c-1,1.1,0.1,4.1,1,6.7c1,2.8,2,5.5,1.2,7.2c-0.3,0.7-1,1.3-2.1,1.9c-1.2,0.7-2.8,1.2-4.3,1.7c-1.5,0.5-3,1-4.1,1.6
			c-1.1,0.6-1.6,1.1-1.7,1.7c-0.2,1.4,2.4,3.2,4.7,4.7c2.5,1.7,4.9,3.3,5.3,5.2c0.3,1.8-1.3,4.1-3,6.6c-1.6,2.3-3.5,5-2.8,6.3
			c0.7,1.4,4,1.2,6.8,1.1c3-0.1,5.8-0.2,7.1,1.1c1.4,1.3,1.4,4.2,1.5,7.3c0,2.8,0.1,5.9,1.4,6.5c0.5,0.3,1.3,0.1,2.4-0.5
			c1.1-0.6,2.4-1.6,3.6-2.6c1.3-1,2.6-2,3.8-2.7c1.1-0.6,2-0.8,2.8-0.7c1.9,0.3,3.6,2.5,5.4,5c1.7,2.3,3.6,4.8,5.1,4.5
			c1.4-0.2,2.2-3.1,3-5.9c0.9-3,1.7-5.8,3.4-6.7c1.7-0.9,4.5-0.1,7.5,0.8c2.5,0.8,5.1,1.6,6.3,0.9c0.1-0.1,0.2-0.1,0.3-0.2
			c1-1.1-0.1-4.1-1-6.7c-1-2.8-2-5.5-1.2-7.2c0.3-0.7,1-1.3,2.1-1.9c1.2-0.7,2.8-1.2,4.3-1.7c1.5-0.5,3-1,4.1-1.6
			c1.1-0.6,1.6-1.1,1.7-1.7c0.2-1.4-2.4-3.2-4.7-4.7c-2.5-1.7-4.9-3.3-5.3-5.2c-0.3-1.8,1.3-4.1,3-6.6c1.6-2.3,3.5-5,2.8-6.3
			C180.3,458,177,458.1,174.2,458.2z"/>
		<path fill="#246C37" d="M158.3,455.5c-1.3-0.6-3.1,0.3-4.9,1.2c-1.5,0.7-3.1,1.5-4.5,1.4c-1.5-0.1-3-1-4.5-1.9
			c-1.6-1-3.3-2.1-4.6-1.6c-1.1,0.4-1.9,2.3-2.5,4.2c-0.6,1.6-1.2,3.3-2.2,4.3c-1,0.9-2.7,1.3-4.4,1.7c-1.9,0.4-4,0.9-4.5,2.2
			c-0.6,1.3,0.3,3.1,1.2,4.9c0.7,1.5,1.5,3.1,1.4,4.5c-0.1,1.5-1,3-1.9,4.5c-1,1.6-2.1,3.3-1.6,4.6c0.4,1.2,2.3,1.9,4.2,2.5
			c1.6,0.6,3.3,1.2,4.3,2.2c0.9,1,1.3,2.7,1.7,4.4c0.4,1.9,0.9,3.9,2.2,4.5c1.3,0.6,3.1-0.3,4.9-1.2c1.5-0.7,3.1-1.5,4.5-1.4
			c1.5,0.1,3,1,4.5,1.9c1.6,1,3.3,2.1,4.6,1.6c1.1-0.4,1.9-2.3,2.5-4.2c0.5-1.4,1-2.9,1.9-3.9c0.1-0.1,0.2-0.3,0.4-0.4
			c1-0.9,2.7-1.3,4.4-1.7c1.9-0.4,4-0.9,4.5-2.2c0.6-1.3-0.3-3.1-1.2-4.9c-0.7-1.5-1.5-3.1-1.4-4.5c0.1-1.5,1-3,1.9-4.5
			c1-1.6,2.1-3.3,1.6-4.6c-0.4-1.2-2.3-1.9-4.2-2.5c-1.6-0.6-3.3-1.2-4.3-2.2c-0.9-1-1.3-2.7-1.7-4.4
			C160,458.1,159.5,456.1,158.3,455.5z"/>
	</g>
	<g>
		<path fill="#3E8941" d="M812.1,913.3c-3.4,1.9-6.7,3.7-9,3c-2.4-0.7-4.2-4.1-6.1-7.7c-1.7-3.2-3.6-6.9-5.5-6.8
			c-0.8,0-1.6,0.7-2.5,2c-1,1.4-1.9,3.3-2.7,5.1c-0.9,1.9-1.8,3.9-2.9,5.4c-0.9,1.3-1.8,2.1-2.8,2.5c-2.3,0.8-5.7-0.9-9.2-2.6
			c-3.3-1.6-7.1-3.5-8.6-2.3c-1.4,1.1-0.7,4.9-0.1,8.6c0.7,4,1.5,7.8,0,9.9c-1.5,2.1-5.3,2.8-9.3,3.5c-3.7,0.6-7.5,1.3-8.1,3
			c-0.6,1.9,2.5,4.7,5.2,7.3c2.9,2.7,5.6,5.3,5.7,7.8c0,1-0.4,2.2-1.3,3.5c-1,1.5-2.6,3-4,4.6c-1.4,1.5-2.9,3-3.9,4.4
			c-0.9,1.3-1.2,2.3-1,3c0.6,1.8,4.7,2.3,8.3,2.8c4,0.5,7.8,1,9.3,3c1.5,1.9,0.9,5.6,0.3,9.5c-0.6,3.7-1.2,7.9,0.5,9
			c1.7,1.2,5.4-0.9,8.7-2.7c3.4-1.9,6.7-3.7,9-3c2.4,0.7,4.2,4.1,6.1,7.7c1.7,3.2,3.6,6.9,5.5,6.8c0.8,0,1.6-0.7,2.5-2
			c1-1.4,1.9-3.3,2.7-5.1c0.9-1.9,1.8-3.9,2.9-5.4c0.9-1.3,1.8-2.1,2.8-2.5c2.3-0.8,5.7,0.9,9.2,2.6c3.3,1.6,7.1,3.5,8.6,2.3
			c1.4-1.1,0.7-4.9,0-8.6c-0.7-4-1.5-7.8,0-9.9s5.3-2.8,9.3-3.4c3.4-0.6,6.9-1.2,7.9-2.6c0.1-0.1,0.2-0.3,0.2-0.4
			c0.6-1.9-2.5-4.7-5.2-7.3c-2.9-2.7-5.6-5.3-5.7-7.8c0-1,0.4-2.2,1.3-3.5c1-1.5,2.6-3,4-4.6c1.4-1.5,2.9-3,3.9-4.4
			c0.9-1.3,1.2-2.3,1-3c-0.6-1.8-4.7-2.3-8.3-2.8c-4-0.5-7.8-1-9.3-3c-1.5-1.9-0.9-5.6-0.3-9.5c0.6-3.7,1.2-7.9-0.5-9
			C819.1,909.5,815.4,911.5,812.1,913.3z"/>
		<path fill="#246C37" d="M791.9,919.6c-1.8,0-3.5,2.2-5,4.3c-1.3,1.8-2.7,3.6-4.4,4.3c-1.8,0.8-4.1,0.6-6.4,0.4
			c-2.5-0.2-5.1-0.5-6.3,0.8c-1.1,1.1-0.9,3.8-0.5,6.4c0.3,2.3,0.6,4.6-0.1,6.4c-0.7,1.7-2.4,3.2-4.1,4.6c-2,1.7-4.1,3.4-4,5.2
			c0,1.8,2.2,3.5,4.3,5.1c1.8,1.3,3.6,2.7,4.3,4.4c0.8,1.8,0.6,4.1,0.4,6.4c-0.2,2.5-0.5,5.2,0.8,6.3c1.3,1.2,3.9,0.9,6.4,0.5
			c2.3-0.3,4.6-0.6,6.4,0.1c1.7,0.7,3.2,2.4,4.6,4.1c1.7,2,3.4,4.1,5.2,4c1.8,0,3.5-2.2,5-4.3c1.3-1.8,2.7-3.6,4.4-4.3
			c1.8-0.8,4.1-0.6,6.4-0.4c2.5,0.2,5.1,0.5,6.3-0.8c1.1-1.2,0.9-3.8,0.5-6.4c-0.3-2-0.5-4-0.1-5.7c0.1-0.2,0.1-0.5,0.2-0.7
			c0.7-1.7,2.4-3.2,4.1-4.6c2-1.7,4.1-3.4,4-5.2c0-1.8-2.2-3.5-4.3-5.1c-1.8-1.3-3.6-2.7-4.3-4.4c-0.8-1.8-0.6-4.1-0.4-6.4
			c0.2-2.5,0.5-5.2-0.8-6.3c-1.3-1.2-3.9-0.9-6.4-0.5c-2.3,0.3-4.6,0.6-6.4-0.1c-1.7-0.7-3.2-2.4-4.6-4.1
			C795.4,921.6,793.7,919.5,791.9,919.6z"/>
	</g>
	<g>
		<path fill="#3E8941" d="M283.1,1215.3c-2.9,0.1-5.7,0.2-7-1.1c-1.4-1.3-1.4-4.2-1.5-7.2c0-2.7-0.1-5.8-1.4-6.4
			c-0.5-0.3-1.3-0.1-2.4,0.5c-1.1,0.6-2.4,1.6-3.6,2.5c-1.3,1-2.5,2-3.7,2.6c-1.1,0.6-2,0.8-2.7,0.7c-1.8-0.2-3.5-2.5-5.3-4.9
			c-1.7-2.2-3.5-4.7-5-4.5c-1.3,0.2-2.2,3.1-2.9,5.8c-0.8,2.9-1.6,5.7-3.4,6.6s-4.5,0.1-7.4-0.8c-2.7-0.8-5.5-1.7-6.4-0.7
			c-1,1.1,0.1,4,1,6.6c1,2.8,2,5.4,1.2,7.1c-0.3,0.7-1,1.3-2.1,1.9c-1.2,0.6-2.7,1.2-4.2,1.7c-1.5,0.5-3,1-4.1,1.6
			c-1,0.6-1.6,1.1-1.7,1.7c-0.2,1.4,2.4,3.1,4.6,4.7c2.5,1.7,4.9,3.3,5.2,5.2c0.3,1.8-1.3,4.1-3,6.5c-1.6,2.3-3.4,4.9-2.7,6.2
			c0.7,1.3,3.9,1.2,6.7,1.1c2.9-0.1,5.7-0.2,7,1.1c1.4,1.3,1.4,4.2,1.5,7.2c0,2.7,0.1,5.8,1.4,6.4c0.5,0.3,1.3,0.1,2.4-0.5
			c1.1-0.6,2.4-1.6,3.6-2.5c1.3-1,2.5-2,3.7-2.6c1.1-0.6,2-0.8,2.7-0.7c1.8,0.2,3.5,2.5,5.3,4.9c1.7,2.2,3.5,4.7,5,4.5
			c1.3-0.2,2.2-3.1,2.9-5.8c0.8-2.9,1.6-5.7,3.4-6.6s4.5-0.1,7.4,0.8c2.5,0.8,5,1.5,6.2,0.9c0.1-0.1,0.2-0.1,0.3-0.2
			c1-1.1-0.1-4-1-6.6c-1-2.8-2-5.4-1.2-7.1c0.3-0.7,1-1.3,2.1-1.9c1.2-0.6,2.7-1.2,4.2-1.7c1.5-0.5,3-1,4.1-1.6
			c1-0.6,1.6-1.1,1.7-1.7c0.2-1.4-2.4-3.1-4.6-4.7c-2.5-1.7-4.9-3.3-5.2-5.2c-0.3-1.8,1.3-4.1,3-6.5c1.6-2.3,3.4-4.9,2.7-6.2
			C289,1215.1,285.9,1215.2,283.1,1215.3z"/>
		<path fill="#246C37" d="M267.4,1212.6c-1.3-0.6-3.1,0.3-4.8,1.2c-1.5,0.7-3,1.5-4.4,1.4c-1.4-0.1-2.9-1-4.4-1.9
			c-1.6-1-3.3-2-4.5-1.6c-1.1,0.4-1.9,2.3-2.5,4.1c-0.6,1.6-1.2,3.3-2.2,4.2c-1,0.9-2.7,1.3-4.3,1.7c-1.9,0.4-3.9,0.9-4.5,2.1
			c-0.6,1.3,0.3,3.1,1.2,4.8c0.7,1.5,1.5,3,1.4,4.4c-0.1,1.4-1,2.9-1.9,4.4c-1,1.6-2,3.3-1.6,4.5c0.4,1.2,2.3,1.9,4.1,2.5
			c1.6,0.6,3.3,1.1,4.2,2.2c0.9,1,1.3,2.7,1.7,4.3c0.4,1.9,0.9,3.9,2.1,4.5c1.3,0.6,3.1-0.3,4.8-1.2c1.5-0.7,3-1.5,4.4-1.4
			c1.4,0.1,2.9,1,4.4,1.9c1.6,1,3.3,2,4.5,1.6c1.1-0.4,1.9-2.3,2.5-4.1c0.5-1.4,1-2.9,1.8-3.8c0.1-0.1,0.2-0.3,0.4-0.4
			c1-0.9,2.7-1.3,4.3-1.7c1.9-0.4,3.9-0.9,4.5-2.1c0.6-1.3-0.3-3.1-1.2-4.8c-0.7-1.5-1.5-3-1.4-4.4c0.1-1.4,1-2.9,1.9-4.4
			c1-1.6,2-3.3,1.6-4.5c-0.4-1.2-2.3-1.9-4.1-2.5c-1.6-0.6-3.3-1.1-4.2-2.2c-0.9-1-1.3-2.7-1.7-4.3
			C269.1,1215.2,268.7,1213.2,267.4,1212.6z"/>
	</g>
	<g>
		<path fill="#3E8941" d="M491.4,1087c-2.9,0.1-5.7,0.2-7-1.1c-1.4-1.3-1.4-4.2-1.5-7.2c0-2.7-0.1-5.8-1.4-6.4
			c-0.5-0.3-1.3-0.1-2.4,0.5c-1.1,0.6-2.4,1.6-3.6,2.5c-1.3,1-2.5,2-3.7,2.6c-1.1,0.6-2,0.8-2.7,0.7c-1.8-0.2-3.5-2.5-5.3-4.9
			c-1.7-2.2-3.5-4.7-5-4.5c-1.3,0.2-2.2,3.1-2.9,5.8c-0.8,2.9-1.6,5.7-3.4,6.6c-1.7,0.9-4.5,0.1-7.4-0.8c-2.7-0.8-5.5-1.7-6.4-0.7
			c-1,1.1,0.1,4,1,6.6c1,2.8,2,5.4,1.2,7.1c-0.3,0.7-1,1.3-2.1,1.9c-1.2,0.6-2.7,1.2-4.2,1.7c-1.5,0.5-3,1-4.1,1.6
			c-1,0.6-1.6,1.1-1.7,1.7c-0.2,1.4,2.4,3.1,4.6,4.7c2.5,1.7,4.9,3.3,5.2,5.2c0.3,1.8-1.3,4.1-3,6.5c-1.6,2.3-3.4,4.9-2.7,6.2
			c0.7,1.3,3.9,1.2,6.7,1.1c2.9-0.1,5.7-0.2,7,1.1c1.4,1.3,1.4,4.2,1.5,7.2c0,2.7,0.1,5.8,1.4,6.4c0.5,0.3,1.3,0.1,2.4-0.5
			c1.1-0.6,2.4-1.6,3.6-2.5c1.3-1,2.5-2,3.7-2.6c1.1-0.6,2-0.8,2.7-0.7c1.8,0.2,3.5,2.5,5.3,4.9c1.7,2.2,3.5,4.7,5,4.5
			c1.3-0.2,2.2-3.1,2.9-5.8c0.8-2.9,1.6-5.7,3.4-6.6c1.7-0.9,4.5-0.1,7.4,0.8c2.5,0.8,5,1.5,6.2,0.9c0.1-0.1,0.2-0.1,0.3-0.2
			c1-1.1-0.1-4-1-6.6c-1-2.8-2-5.4-1.2-7.1c0.3-0.7,1-1.3,2.1-1.9c1.2-0.6,2.7-1.2,4.2-1.7c1.5-0.5,3-1,4.1-1.6
			c1-0.6,1.6-1.1,1.7-1.7c0.2-1.4-2.4-3.1-4.6-4.7c-2.5-1.7-4.9-3.3-5.2-5.2c-0.3-1.8,1.3-4.1,3-6.5c1.6-2.3,3.4-4.9,2.7-6.2
			C497.3,1086.8,494.2,1086.9,491.4,1087z"/>
		<path fill="#246C37" d="M475.7,1084.4c-1.3-0.6-3.1,0.3-4.8,1.2c-1.5,0.7-3,1.5-4.4,1.4c-1.4-0.1-2.9-1-4.4-1.9
			c-1.6-1-3.3-2-4.5-1.6c-1.1,0.4-1.9,2.3-2.5,4.1c-0.6,1.6-1.2,3.3-2.2,4.2c-1,0.9-2.7,1.3-4.3,1.7c-1.9,0.4-3.9,0.9-4.5,2.1
			c-0.6,1.3,0.3,3.1,1.2,4.8c0.7,1.5,1.5,3,1.4,4.4c-0.1,1.4-1,2.9-1.9,4.4c-1,1.6-2,3.3-1.6,4.5c0.4,1.2,2.3,1.9,4.1,2.5
			c1.6,0.6,3.3,1.1,4.2,2.2c0.9,1,1.3,2.7,1.7,4.3c0.4,1.9,0.9,3.9,2.1,4.5c1.3,0.6,3.1-0.3,4.8-1.2c1.5-0.7,3-1.5,4.4-1.4
			c1.4,0.1,2.9,1,4.4,1.9c1.6,1,3.3,2,4.5,1.6c1.1-0.4,1.9-2.3,2.5-4.1c0.5-1.4,1-2.9,1.8-3.8c0.1-0.1,0.2-0.3,0.4-0.4
			c1-0.9,2.7-1.3,4.3-1.7c1.9-0.4,3.9-0.9,4.5-2.1c0.6-1.3-0.3-3.1-1.2-4.8c-0.7-1.5-1.5-3-1.4-4.4c0.1-1.4,1-2.9,1.9-4.4
			c1-1.6,2-3.3,1.6-4.5c-0.4-1.2-2.3-1.9-4.1-2.5c-1.6-0.6-3.3-1.1-4.2-2.2c-0.9-1-1.3-2.7-1.7-4.3
			C477.4,1087,477,1085,475.7,1084.4z"/>
	</g>
	<g>
		<path fill="#3E8941" d="M995.4,1208.5c-2.9,0.1-5.7,0.2-7-1.1c-1.4-1.3-1.4-4.2-1.5-7.2c0-2.7-0.1-5.8-1.4-6.4
			c-0.5-0.3-1.3-0.1-2.4,0.5c-1.1,0.6-2.4,1.6-3.6,2.5c-1.3,1-2.5,2-3.7,2.6c-1.1,0.6-2,0.8-2.7,0.7c-1.8-0.2-3.5-2.5-5.3-4.9
			c-1.7-2.2-3.5-4.7-5-4.5c-1.3,0.2-2.2,3.1-2.9,5.8c-0.8,2.9-1.6,5.7-3.4,6.6c-1.7,0.9-4.5,0.1-7.4-0.8c-2.7-0.8-5.5-1.7-6.4-0.7
			c-1,1.1,0.1,4,1,6.6c1,2.8,2,5.4,1.2,7.1c-0.3,0.7-1,1.3-2.1,1.9c-1.2,0.6-2.7,1.2-4.2,1.7c-1.5,0.5-3,1-4.1,1.6
			c-1,0.6-1.6,1.1-1.7,1.7c-0.2,1.4,2.4,3.1,4.6,4.7c2.5,1.7,4.9,3.3,5.2,5.2c0.3,1.8-1.3,4.1-3,6.5c-1.6,2.3-3.4,4.9-2.7,6.2
			c0.7,1.3,3.9,1.2,6.7,1.1c2.9-0.1,5.7-0.2,7,1.1c1.4,1.3,1.4,4.2,1.5,7.2c0,2.7,0.1,5.8,1.4,6.4c0.5,0.3,1.3,0.1,2.4-0.5
			c1.1-0.6,2.4-1.6,3.6-2.5c1.3-1,2.5-2,3.7-2.6c1.1-0.6,2-0.8,2.7-0.7c1.8,0.2,3.5,2.5,5.3,4.9c1.7,2.2,3.5,4.7,5,4.5
			c1.3-0.2,2.2-3.1,2.9-5.8c0.8-2.9,1.6-5.7,3.4-6.6c1.7-0.9,4.5-0.1,7.4,0.8c2.5,0.8,5,1.5,6.2,0.9c0.1-0.1,0.2-0.1,0.3-0.2
			c1-1.1-0.1-4-1-6.6c-1-2.8-2-5.4-1.2-7.1c0.3-0.7,1-1.3,2.1-1.9c1.2-0.6,2.7-1.2,4.2-1.7c1.5-0.5,3-1,4.1-1.6
			c1-0.6,1.6-1.1,1.7-1.7c0.2-1.4-2.4-3.1-4.6-4.7c-2.5-1.7-4.9-3.3-5.2-5.2c-0.3-1.8,1.3-4.1,3-6.5c1.6-2.3,3.4-4.9,2.7-6.2
			C1001.3,1208.3,998.2,1208.4,995.4,1208.5z"/>
		<path fill="#246C37" d="M979.7,1205.9c-1.3-0.6-3.1,0.3-4.8,1.2c-1.5,0.7-3,1.5-4.4,1.4c-1.4-0.1-2.9-1-4.4-1.9
			c-1.6-1-3.3-2-4.5-1.6c-1.1,0.4-1.9,2.3-2.5,4.1c-0.6,1.6-1.2,3.3-2.2,4.2c-1,0.9-2.7,1.3-4.3,1.7c-1.9,0.4-3.9,0.9-4.5,2.1
			c-0.6,1.3,0.3,3.1,1.2,4.8c0.7,1.5,1.5,3,1.4,4.4c-0.1,1.4-1,2.9-1.9,4.4c-1,1.6-2,3.3-1.6,4.5c0.4,1.2,2.3,1.9,4.1,2.5
			c1.6,0.6,3.3,1.1,4.2,2.2c0.9,1,1.3,2.7,1.7,4.3c0.4,1.9,0.9,3.9,2.1,4.5c1.3,0.6,3.1-0.3,4.8-1.2c1.5-0.7,3-1.5,4.4-1.4
			c1.4,0.1,2.9,1,4.4,1.9c1.6,1,3.3,2,4.5,1.6c1.1-0.4,1.9-2.3,2.5-4.1c0.5-1.4,1-2.9,1.8-3.8c0.1-0.1,0.2-0.3,0.4-0.4
			c1-0.9,2.7-1.3,4.3-1.7c1.9-0.4,3.9-0.9,4.5-2.1c0.6-1.3-0.3-3.1-1.2-4.8c-0.7-1.5-1.5-3-1.4-4.4c0.1-1.4,1-2.9,1.9-4.4
			c1-1.6,2-3.3,1.6-4.5c-0.4-1.2-2.3-1.9-4.1-2.5c-1.6-0.6-3.3-1.1-4.2-2.2c-0.9-1-1.3-2.7-1.7-4.3
			C981.4,1208.4,981,1206.5,979.7,1205.9z"/>
	</g>
	<g>
		<path fill="#3E8941" d="M1297.2,1047.9c-2.9,0.1-5.7,0.2-7-1.1c-1.4-1.3-1.4-4.2-1.5-7.2c0-2.7-0.1-5.8-1.4-6.4
			c-0.5-0.3-1.3-0.1-2.4,0.5c-1.1,0.6-2.4,1.6-3.6,2.5c-1.3,1-2.5,2-3.7,2.6c-1.1,0.6-2,0.8-2.7,0.7c-1.8-0.2-3.5-2.5-5.3-4.9
			c-1.7-2.2-3.5-4.7-5-4.5c-1.3,0.2-2.2,3.1-2.9,5.8c-0.8,2.9-1.6,5.7-3.4,6.6c-1.7,0.9-4.5,0.1-7.4-0.8c-2.7-0.8-5.5-1.7-6.4-0.7
			c-1,1.1,0.1,4,1,6.6c1,2.8,2,5.4,1.2,7.1c-0.3,0.7-1,1.3-2.1,1.9c-1.2,0.6-2.7,1.2-4.2,1.7c-1.5,0.5-3,1-4.1,1.6
			c-1,0.6-1.6,1.1-1.7,1.7c-0.2,1.4,2.4,3.1,4.6,4.7c2.5,1.7,4.9,3.3,5.2,5.2c0.3,1.8-1.3,4.1-3,6.5c-1.6,2.3-3.4,4.9-2.7,6.2
			c0.7,1.3,3.9,1.2,6.7,1.1c2.9-0.1,5.7-0.2,7,1.1c1.4,1.3,1.4,4.2,1.5,7.2c0,2.7,0.1,5.8,1.4,6.4c0.5,0.3,1.3,0.1,2.4-0.5
			c1.1-0.6,2.4-1.6,3.6-2.5c1.3-1,2.5-2,3.7-2.6c1.1-0.6,2-0.8,2.7-0.7c1.8,0.2,3.5,2.5,5.3,4.9c1.7,2.2,3.5,4.7,5,4.5
			c1.3-0.2,2.2-3.1,2.9-5.8c0.8-2.9,1.6-5.7,3.4-6.6c1.7-0.9,4.5-0.1,7.4,0.8c2.5,0.8,5,1.5,6.2,0.9c0.1-0.1,0.2-0.1,0.3-0.2
			c1-1.1-0.1-4-1-6.6c-1-2.8-2-5.4-1.2-7.1c0.3-0.7,1-1.3,2.1-1.9c1.2-0.6,2.7-1.2,4.2-1.7c1.5-0.5,3-1,4.1-1.6
			c1-0.6,1.6-1.1,1.7-1.7c0.2-1.4-2.4-3.1-4.6-4.7c-2.5-1.7-4.9-3.3-5.2-5.2c-0.3-1.8,1.3-4.1,3-6.4c1.6-2.3,3.4-4.9,2.7-6.2
			C1303.2,1047.6,1300,1047.8,1297.2,1047.9z"/>
		<path fill="#246C37" d="M1281.6,1045.2c-1.3-0.6-3.1,0.3-4.8,1.2c-1.5,0.7-3,1.5-4.4,1.4c-1.4-0.1-2.9-1-4.4-1.9
			c-1.6-1-3.3-2-4.5-1.6c-1.1,0.4-1.9,2.3-2.5,4.1c-0.6,1.6-1.2,3.3-2.2,4.2c-1,0.9-2.7,1.3-4.3,1.7c-1.9,0.4-3.9,0.9-4.5,2.1
			c-0.6,1.3,0.3,3.1,1.2,4.8c0.7,1.5,1.5,3,1.4,4.4c-0.1,1.4-1,2.9-1.9,4.4c-1,1.6-2,3.3-1.6,4.5c0.4,1.2,2.3,1.9,4.1,2.5
			c1.6,0.6,3.3,1.1,4.2,2.2c0.9,1,1.3,2.7,1.7,4.3c0.4,1.9,0.9,3.9,2.1,4.5c1.3,0.6,3.1-0.3,4.8-1.2c1.5-0.7,3-1.5,4.4-1.4
			c1.4,0.1,2.9,1,4.4,1.9c1.6,1,3.3,2,4.5,1.6c1.1-0.4,1.9-2.3,2.5-4.1c0.5-1.4,1-2.9,1.8-3.8c0.1-0.1,0.2-0.3,0.4-0.4
			c1-0.9,2.7-1.3,4.3-1.7c1.9-0.4,3.9-0.9,4.5-2.1c0.6-1.3-0.3-3.1-1.2-4.8c-0.7-1.5-1.5-3-1.4-4.4c0.1-1.4,1-2.9,1.9-4.4
			c1-1.6,2-3.3,1.6-4.5c-0.4-1.2-2.3-1.9-4.1-2.5c-1.6-0.6-3.3-1.1-4.2-2.2c-0.9-1-1.3-2.7-1.7-4.3
			C1283.3,1047.8,1282.8,1045.8,1281.6,1045.2z"/>
	</g>
	<g>
		<path fill="#3E8941" d="M1333.9,1123.5c-2.9,0.1-5.7,0.2-7-1.1c-1.4-1.3-1.4-4.2-1.5-7.2c0-2.7-0.1-5.8-1.4-6.4
			c-0.5-0.3-1.3-0.1-2.4,0.5c-1.1,0.6-2.4,1.6-3.6,2.5c-1.3,1-2.5,2-3.7,2.6c-1.1,0.6-2,0.8-2.7,0.7c-1.8-0.2-3.5-2.5-5.3-4.9
			c-1.7-2.2-3.5-4.7-5-4.5c-1.3,0.2-2.2,3.1-2.9,5.8c-0.8,2.9-1.6,5.7-3.4,6.6c-1.7,0.9-4.5,0.1-7.4-0.8c-2.7-0.8-5.5-1.7-6.4-0.7
			c-1,1.1,0.1,4,1,6.6c1,2.8,2,5.4,1.2,7.1c-0.3,0.7-1,1.3-2.1,1.9c-1.2,0.6-2.7,1.2-4.2,1.7c-1.5,0.5-3,1-4.1,1.6
			c-1,0.6-1.6,1.1-1.7,1.7c-0.2,1.4,2.4,3.1,4.6,4.7c2.5,1.7,4.9,3.3,5.2,5.2c0.3,1.8-1.3,4.1-3,6.5c-1.6,2.3-3.4,4.9-2.7,6.2
			c0.7,1.3,3.9,1.2,6.7,1.1c2.9-0.1,5.7-0.2,7,1.1c1.4,1.3,1.4,4.2,1.5,7.2c0,2.7,0.1,5.8,1.4,6.4c0.5,0.3,1.3,0.1,2.4-0.5
			c1.1-0.6,2.4-1.6,3.6-2.5c1.3-1,2.5-2,3.7-2.6c1.1-0.6,2-0.8,2.7-0.7c1.8,0.2,3.5,2.5,5.3,4.9c1.7,2.2,3.5,4.7,5,4.5
			c1.3-0.2,2.2-3.1,2.9-5.8c0.8-2.9,1.6-5.7,3.4-6.6c1.7-0.9,4.5-0.1,7.4,0.8c2.5,0.8,5,1.5,6.2,0.9c0.1-0.1,0.2-0.1,0.3-0.2
			c1-1.1-0.1-4-1-6.6c-1-2.8-2-5.4-1.2-7.1c0.3-0.7,1-1.3,2.1-1.9c1.2-0.6,2.7-1.2,4.2-1.7c1.5-0.5,3-1,4.1-1.6
			c1-0.6,1.6-1.1,1.7-1.7c0.2-1.4-2.4-3.1-4.6-4.7c-2.5-1.7-4.9-3.3-5.2-5.2c-0.3-1.8,1.3-4.1,3-6.5c1.6-2.3,3.4-4.9,2.7-6.2
			C1339.9,1123.2,1336.7,1123.4,1333.9,1123.5z"/>
		<path fill="#246C37" d="M1318.2,1120.8c-1.3-0.6-3.1,0.3-4.8,1.2c-1.5,0.7-3,1.5-4.4,1.4c-1.4-0.1-2.9-1-4.4-1.9
			c-1.6-1-3.3-2-4.5-1.6c-1.1,0.4-1.9,2.3-2.5,4.1c-0.6,1.6-1.2,3.3-2.2,4.2c-1,0.9-2.7,1.3-4.3,1.7c-1.9,0.4-3.9,0.9-4.5,2.1
			c-0.6,1.3,0.3,3.1,1.2,4.8c0.7,1.5,1.5,3,1.4,4.4c-0.1,1.4-1,2.9-1.9,4.4c-1,1.6-2,3.3-1.6,4.5c0.4,1.2,2.3,1.9,4.1,2.5
			c1.6,0.6,3.3,1.1,4.2,2.2c0.9,1,1.3,2.7,1.7,4.3c0.4,1.9,0.9,3.9,2.1,4.5c1.3,0.6,3.1-0.3,4.8-1.2c1.5-0.7,3-1.5,4.4-1.4
			c1.4,0.1,2.9,1,4.4,1.9c1.6,1,3.3,2,4.5,1.6c1.1-0.4,1.9-2.3,2.5-4.1c0.5-1.4,1-2.9,1.8-3.8c0.1-0.1,0.2-0.3,0.4-0.4
			c1-0.9,2.7-1.3,4.3-1.7c1.9-0.4,3.9-0.9,4.5-2.1c0.6-1.3-0.3-3.1-1.2-4.8c-0.7-1.5-1.5-3-1.4-4.4c0.1-1.4,1-2.9,1.9-4.4
			c1-1.6,2-3.3,1.6-4.5c-0.4-1.2-2.3-1.9-4.1-2.5c-1.6-0.6-3.3-1.1-4.2-2.2c-0.9-1-1.3-2.7-1.7-4.3
			C1319.9,1123.4,1319.5,1121.4,1318.2,1120.8z"/>
	</g>
	<g>
		<path fill="#3E8941" d="M1274.8,1246.1c-2.9,0.1-5.7,0.2-7-1.1c-1.4-1.3-1.4-4.2-1.5-7.2c0-2.7-0.1-5.8-1.4-6.4
			c-0.5-0.3-1.3-0.1-2.4,0.5c-1.1,0.6-2.4,1.6-3.6,2.5c-1.3,1-2.5,2-3.7,2.6c-1.1,0.6-2,0.8-2.7,0.7c-1.8-0.2-3.5-2.5-5.3-4.9
			c-1.7-2.2-3.5-4.7-5-4.5c-1.3,0.2-2.2,3.1-2.9,5.8c-0.8,2.9-1.6,5.7-3.4,6.6c-1.7,0.9-4.5,0.1-7.4-0.8c-2.7-0.8-5.5-1.7-6.4-0.7
			c-1,1.1,0.1,4,1,6.6c1,2.8,2,5.4,1.2,7.1c-0.3,0.7-1,1.3-2.1,1.9c-1.2,0.6-2.7,1.2-4.2,1.7c-1.5,0.5-3,1-4.1,1.6
			c-1,0.6-1.6,1.1-1.7,1.7c-0.2,1.4,2.4,3.1,4.6,4.7c2.5,1.7,4.9,3.3,5.2,5.2c0.3,1.8-1.3,4.1-3,6.4c-1.6,2.3-3.4,4.9-2.7,6.2
			c0.7,1.3,3.9,1.2,6.7,1.1c2.9-0.1,5.7-0.2,7,1.1c1.4,1.3,1.4,4.2,1.5,7.2c0,2.7,0.1,5.8,1.4,6.4c0.5,0.3,1.3,0.1,2.4-0.5
			c1.1-0.6,2.4-1.6,3.6-2.5c1.3-1,2.5-2,3.7-2.6c1.1-0.6,2-0.8,2.7-0.7c1.8,0.2,3.5,2.5,5.3,4.9c1.7,2.2,3.5,4.7,5,4.5
			c1.3-0.2,2.2-3.1,2.9-5.8c0.8-2.9,1.6-5.7,3.4-6.6c1.7-0.9,4.5-0.1,7.4,0.8c2.5,0.8,5,1.5,6.2,0.9c0.1-0.1,0.2-0.1,0.3-0.2
			c1-1.1-0.1-4-1-6.6c-1-2.8-2-5.4-1.2-7.1c0.3-0.7,1-1.3,2.1-1.9c1.2-0.6,2.7-1.2,4.2-1.7c1.5-0.5,3-1,4.1-1.6
			c1-0.6,1.6-1.1,1.7-1.7c0.2-1.4-2.4-3.1-4.6-4.7c-2.5-1.7-4.9-3.3-5.2-5.2c-0.3-1.8,1.3-4.1,3-6.4c1.6-2.3,3.4-4.9,2.7-6.2
			C1280.8,1245.9,1277.6,1246,1274.8,1246.1z"/>
		<path fill="#246C37" d="M1259.1,1243.5c-1.3-0.6-3.1,0.3-4.8,1.2c-1.5,0.7-3,1.5-4.4,1.4c-1.4-0.1-2.9-1-4.4-1.9
			c-1.6-1-3.3-2-4.5-1.6c-1.1,0.4-1.9,2.3-2.5,4.1c-0.6,1.6-1.2,3.3-2.2,4.2c-1,0.9-2.7,1.3-4.3,1.7c-1.9,0.4-3.9,0.9-4.5,2.1
			c-0.6,1.3,0.3,3.1,1.2,4.8c0.7,1.5,1.5,3,1.4,4.4c-0.1,1.4-1,2.9-1.9,4.4c-1,1.6-2,3.3-1.6,4.5c0.4,1.2,2.3,1.9,4.1,2.5
			c1.6,0.6,3.3,1.1,4.2,2.2c0.9,1,1.3,2.7,1.7,4.3c0.4,1.9,0.9,3.9,2.1,4.5c1.3,0.6,3.1-0.3,4.8-1.2c1.5-0.7,3-1.5,4.4-1.4
			c1.4,0.1,2.9,1,4.4,1.9c1.6,1,3.3,2,4.5,1.6c1.1-0.4,1.9-2.3,2.5-4.1c0.5-1.4,1-2.9,1.8-3.8c0.1-0.1,0.2-0.3,0.4-0.4
			c1-0.9,2.7-1.3,4.3-1.7c1.9-0.4,3.9-0.9,4.5-2.1c0.6-1.3-0.3-3.1-1.2-4.8c-0.7-1.5-1.5-3-1.4-4.4c0.1-1.4,1-2.9,1.9-4.4
			c1-1.6,2-3.3,1.6-4.5c-0.4-1.2-2.3-1.9-4.1-2.5c-1.6-0.6-3.3-1.1-4.2-2.2c-0.9-1-1.3-2.7-1.7-4.3
			C1260.8,1246,1260.4,1244.1,1259.1,1243.5z"/>
	</g>
	<g>
		<path fill="#3E8941" d="M636.7,210.4c-3.9,0.1-7.6,0.3-9.4-1.4c-1.8-1.7-1.9-5.5-2-9.6c-0.1-3.6-0.1-7.8-1.8-8.6
			c-0.7-0.3-1.7-0.1-3.1,0.6c-1.5,0.8-3.1,2.1-4.8,3.4c-1.7,1.3-3.4,2.6-5,3.5c-1.4,0.8-2.6,1.1-3.6,0.9c-2.4-0.3-4.7-3.3-7.1-6.5
			c-2.2-3-4.7-6.3-6.7-6c-1.8,0.3-2.9,4.1-3.9,7.7c-1.1,3.9-2.2,7.6-4.5,8.8c-2.3,1.2-6,0.1-9.8-1.1c-3.6-1.1-7.3-2.2-8.6-0.9
			c-1.4,1.4,0.1,5.4,1.3,8.8c1.4,3.7,2.6,7.2,1.6,9.5c-0.4,0.9-1.3,1.8-2.8,2.5c-1.6,0.9-3.7,1.6-5.7,2.3c-1.9,0.7-4,1.4-5.4,2.1
			c-1.4,0.8-2.1,1.5-2.2,2.3c-0.3,1.9,3.2,4.2,6.2,6.2c3.3,2.3,6.5,4.4,6.9,6.9c0.4,2.4-1.7,5.4-4,8.6c-2.2,3.1-4.6,6.5-3.6,8.3
			c1,1.8,5.2,1.6,8.9,1.5c3.9-0.1,7.6-0.3,9.4,1.4c1.8,1.7,1.9,5.5,2,9.6c0.1,3.6,0.1,7.8,1.8,8.6c0.7,0.3,1.7,0.1,3.1-0.6
			c1.5-0.8,3.1-2.1,4.8-3.4c1.7-1.3,3.4-2.6,5-3.5c1.4-0.8,2.6-1.1,3.6-0.9c2.4,0.3,4.7,3.3,7.1,6.5c2.2,3,4.7,6.3,6.7,6
			c1.8-0.3,2.9-4.1,3.9-7.7c1.1-3.9,2.2-7.6,4.5-8.8c2.3-1.2,6-0.1,9.8,1.1c3.3,1,6.7,2,8.2,1.2c0.1-0.1,0.3-0.2,0.4-0.3
			c1.4-1.4-0.1-5.4-1.3-8.8c-1.4-3.7-2.6-7.2-1.6-9.5c0.4-0.9,1.3-1.8,2.8-2.5c1.6-0.9,3.7-1.6,5.7-2.3c1.9-0.7,4-1.4,5.4-2.1
			c1.4-0.8,2.1-1.5,2.2-2.3c0.3-1.9-3.2-4.2-6.2-6.2c-3.3-2.3-6.5-4.4-6.9-6.9c-0.4-2.4,1.7-5.4,4-8.6c2.2-3.1,4.6-6.5,3.6-8.3
			C644.7,210.2,640.4,210.3,636.7,210.4z"/>
		<path fill="#246C37" d="M615.8,206.9c-1.7-0.8-4.1,0.4-6.4,1.5c-2,1-4,2-5.9,1.9c-1.9-0.1-3.9-1.3-5.8-2.5c-2.2-1.3-4.4-2.7-6-2.1
			c-1.5,0.5-2.5,3-3.3,5.5c-0.7,2.1-1.5,4.4-2.9,5.6c-1.4,1.2-3.6,1.7-5.7,2.2c-2.5,0.6-5.2,1.2-6,2.9c-0.8,1.7,0.4,4.1,1.5,6.4
			c1,2,2,4,1.9,5.8c-0.1,1.9-1.3,3.9-2.5,5.8c-1.3,2.2-2.7,4.4-2.2,6c0.6,1.6,3.1,2.5,5.5,3.3c2.1,0.7,4.4,1.5,5.6,2.9
			c1.2,1.4,1.7,3.6,2.2,5.7c0.6,2.5,1.2,5.2,2.9,6c1.7,0.8,4.1-0.4,6.4-1.5c2-1,4-2,5.9-1.9c1.9,0.1,3.9,1.3,5.8,2.5
			c2.2,1.3,4.4,2.7,6,2.1c1.5-0.5,2.5-3,3.3-5.5c0.7-1.9,1.3-3.8,2.4-5.1c0.2-0.2,0.3-0.4,0.5-0.5c1.4-1.2,3.6-1.7,5.7-2.2
			c2.5-0.6,5.2-1.2,6-2.9c0.8-1.7-0.4-4.1-1.5-6.4c-1-2-2-4-1.9-5.8c0.1-1.9,1.3-3.9,2.5-5.8c1.3-2.2,2.7-4.4,2.2-6
			c-0.6-1.6-3.1-2.5-5.5-3.3c-2.1-0.7-4.4-1.5-5.6-2.9c-1.2-1.4-1.7-3.6-2.2-5.7C618.1,210.3,617.5,207.7,615.8,206.9z"/>
	</g>
	<g>
		<path fill="#3E8941" d="M1157,240.4c-3.9,0.1-7.6,0.3-9.4-1.4c-1.8-1.7-1.9-5.5-2-9.6c-0.1-3.6-0.1-7.8-1.8-8.6
			c-0.7-0.3-1.7-0.1-3.1,0.6c-1.5,0.8-3.1,2.1-4.8,3.4c-1.7,1.3-3.4,2.6-5,3.5c-1.4,0.8-2.6,1.1-3.6,0.9c-2.4-0.3-4.7-3.3-7.1-6.5
			c-2.2-3-4.7-6.3-6.7-6c-1.8,0.3-2.9,4.1-3.9,7.7c-1.1,3.9-2.2,7.6-4.5,8.8c-2.3,1.2-6,0.1-9.8-1.1c-3.6-1.1-7.3-2.2-8.6-0.9
			c-1.4,1.4,0.1,5.4,1.3,8.8c1.4,3.7,2.6,7.2,1.6,9.5c-0.4,0.9-1.3,1.8-2.8,2.5c-1.6,0.9-3.7,1.6-5.7,2.3c-1.9,0.7-4,1.4-5.4,2.1
			c-1.4,0.8-2.1,1.5-2.2,2.3c-0.3,1.9,3.2,4.2,6.2,6.2c3.3,2.3,6.5,4.4,6.9,6.9c0.4,2.4-1.7,5.4-4,8.6c-2.2,3.1-4.6,6.5-3.6,8.3
			c1,1.8,5.2,1.6,8.9,1.5c3.9-0.1,7.6-0.3,9.4,1.4c1.8,1.7,1.9,5.5,2,9.6c0.1,3.6,0.1,7.8,1.8,8.6c0.7,0.3,1.7,0.1,3.1-0.6
			c1.5-0.8,3.1-2.1,4.8-3.4c1.7-1.3,3.4-2.6,5-3.5c1.4-0.8,2.6-1.1,3.6-0.9c2.4,0.3,4.7,3.3,7.1,6.5c2.2,3,4.7,6.3,6.7,6
			c1.8-0.3,2.9-4.1,3.9-7.7c1.1-3.9,2.2-7.6,4.5-8.8s6-0.1,9.8,1.1c3.3,1,6.7,2,8.2,1.2c0.1-0.1,0.3-0.2,0.4-0.3
			c1.4-1.4-0.1-5.4-1.3-8.8c-1.4-3.7-2.6-7.2-1.6-9.5c0.4-0.9,1.3-1.8,2.8-2.5c1.6-0.9,3.7-1.6,5.7-2.3c1.9-0.7,4-1.4,5.4-2.1
			c1.4-0.8,2.1-1.5,2.2-2.3c0.3-1.9-3.2-4.2-6.2-6.2c-3.3-2.3-6.5-4.4-6.9-6.9c-0.4-2.4,1.7-5.4,4-8.6c2.2-3.1,4.6-6.5,3.6-8.3
			C1165,240.1,1160.7,240.2,1157,240.4z"/>
		<path fill="#246C37" d="M1136.1,236.8c-1.7-0.8-4.1,0.4-6.4,1.5c-2,1-4,2-5.9,1.9c-1.9-0.1-3.9-1.3-5.8-2.5
			c-2.2-1.3-4.4-2.7-6-2.1c-1.5,0.5-2.5,3-3.3,5.5c-0.7,2.1-1.5,4.4-2.9,5.6c-1.4,1.2-3.6,1.7-5.7,2.2c-2.5,0.6-5.2,1.2-6,2.9
			c-0.8,1.7,0.4,4.1,1.5,6.4c1,2,2,4,1.9,5.8c-0.1,1.9-1.3,3.9-2.5,5.8c-1.3,2.2-2.7,4.4-2.2,6c0.6,1.6,3.1,2.5,5.5,3.3
			c2.1,0.7,4.4,1.5,5.6,2.9c1.2,1.4,1.7,3.6,2.2,5.7c0.6,2.5,1.2,5.2,2.9,6c1.7,0.8,4.1-0.4,6.4-1.5c2-1,4-2,5.9-1.9
			c1.9,0.1,3.9,1.3,5.8,2.5c2.2,1.3,4.4,2.7,6,2.1c1.5-0.5,2.5-3,3.3-5.5c0.7-1.9,1.3-3.8,2.4-5.1c0.2-0.2,0.3-0.4,0.5-0.5
			c1.4-1.2,3.6-1.7,5.7-2.2c2.5-0.6,5.2-1.2,6-2.9c0.8-1.7-0.4-4.1-1.5-6.4c-1-2-2-4-1.9-5.8c0.1-1.9,1.3-3.9,2.5-5.8
			c1.3-2.2,2.7-4.4,2.2-6c-0.6-1.6-3.1-2.5-5.5-3.3c-2.1-0.7-4.4-1.5-5.6-2.9c-1.2-1.4-1.7-3.6-2.2-5.7
			C1138.4,240.2,1137.8,237.6,1136.1,236.8z"/>
	</g>
	<g>
		<path fill="#3E8941" d="M1183.1,340.3c-2.4,0.1-4.6,0.2-5.6-0.8c-1.1-1.1-1.1-3.3-1.2-5.8c0-2.2-0.1-4.7-1.1-5.2
			c-0.4-0.2-1-0.1-1.9,0.4c-0.9,0.5-1.9,1.3-2.9,2c-1,0.8-2,1.6-3,2.1c-0.9,0.5-1.6,0.6-2.2,0.6c-1.5-0.2-2.8-2-4.3-3.9
			c-1.3-1.8-2.8-3.8-4-3.6c-1.1,0.2-1.7,2.5-2.4,4.6c-0.7,2.4-1.3,4.6-2.7,5.3c-1.4,0.7-3.6,0.1-5.9-0.7c-2.2-0.7-4.4-1.3-5.2-0.6
			c-0.8,0.9,0,3.2,0.8,5.3c0.8,2.2,1.6,4.4,0.9,5.7c-0.3,0.6-0.8,1.1-1.7,1.5c-1,0.5-2.2,0.9-3.4,1.4c-1.2,0.4-2.4,0.8-3.3,1.3
			c-0.8,0.5-1.3,0.9-1.3,1.4c-0.2,1.1,1.9,2.5,3.7,3.7c2,1.4,3.9,2.6,4.2,4.1c0.3,1.4-1,3.3-2.4,5.2c-1.3,1.8-2.8,3.9-2.2,5
			c0.6,1.1,3.1,1,5.4,0.9c2.4-0.1,4.6-0.2,5.6,0.8c1.1,1.1,1.1,3.3,1.2,5.8c0,2.2,0.1,4.7,1.1,5.2c0.4,0.2,1,0.1,1.9-0.4
			c0.9-0.5,1.9-1.3,2.9-2c1-0.8,2-1.6,3-2.1c0.9-0.5,1.6-0.6,2.2-0.6c1.5,0.2,2.8,2,4.2,3.9c1.3,1.8,2.8,3.8,4,3.6
			c1.1-0.2,1.7-2.5,2.4-4.6c0.7-2.4,1.3-4.6,2.7-5.3c1.4-0.7,3.6-0.1,5.9,0.7c2,0.6,4,1.2,4.9,0.7c0.1,0,0.2-0.1,0.2-0.2
			c0.8-0.9,0-3.2-0.8-5.3c-0.8-2.2-1.6-4.4-0.9-5.7c0.3-0.6,0.8-1.1,1.7-1.5c1-0.5,2.2-0.9,3.4-1.4c1.2-0.4,2.4-0.8,3.3-1.3
			c0.8-0.5,1.3-0.9,1.3-1.4c0.2-1.1-1.9-2.5-3.7-3.7c-2-1.4-3.9-2.6-4.2-4.1c-0.3-1.4,1-3.3,2.4-5.2c1.3-1.8,2.8-3.9,2.2-5
			C1187.9,340.1,1185.3,340.2,1183.1,340.3z"/>
		<path fill="#246C37" d="M1170.5,338.2c-1-0.5-2.5,0.2-3.9,0.9c-1.2,0.6-2.4,1.2-3.5,1.1c-1.2-0.1-2.4-0.8-3.5-1.5
			c-1.3-0.8-2.6-1.6-3.6-1.3c-0.9,0.3-1.5,1.8-2,3.3c-0.4,1.3-0.9,2.6-1.8,3.4c-0.8,0.7-2.2,1-3.4,1.3c-1.5,0.4-3.1,0.7-3.6,1.7
			c-0.5,1,0.2,2.5,0.9,3.9c0.6,1.2,1.2,2.4,1.1,3.5c-0.1,1.1-0.8,2.4-1.5,3.5c-0.8,1.3-1.6,2.6-1.3,3.6c0.3,1,1.8,1.5,3.3,2
			c1.3,0.4,2.6,0.9,3.4,1.8c0.7,0.8,1,2.2,1.3,3.4c0.3,1.5,0.7,3.1,1.7,3.6c1,0.5,2.5-0.2,3.9-0.9c1.2-0.6,2.4-1.2,3.5-1.1
			c1.2,0.1,2.4,0.8,3.5,1.5c1.3,0.8,2.6,1.6,3.6,1.3c0.9-0.3,1.5-1.8,2-3.3c0.4-1.1,0.8-2.3,1.5-3.1c0.1-0.1,0.2-0.2,0.3-0.3
			c0.8-0.7,2.2-1,3.4-1.3c1.5-0.3,3.1-0.7,3.6-1.7c0.5-1-0.2-2.5-0.9-3.9c-0.6-1.2-1.2-2.4-1.1-3.5c0.1-1.1,0.8-2.4,1.5-3.5
			c0.8-1.3,1.6-2.6,1.3-3.6c-0.3-1-1.8-1.5-3.3-2c-1.3-0.4-2.6-0.9-3.4-1.8c-0.7-0.8-1-2.2-1.3-3.4
			C1171.9,340.2,1171.5,338.7,1170.5,338.2z"/>
	</g>
	<g>
		<path fill="#3E8941" d="M1192.2,433c-2.4,0.1-4.6,0.2-5.6-0.8c-1.1-1.1-1.1-3.3-1.2-5.8c0-2.2-0.1-4.7-1.1-5.2
			c-0.4-0.2-1-0.1-1.9,0.4c-0.9,0.5-1.9,1.3-2.9,2c-1,0.8-2,1.6-3,2.1c-0.9,0.5-1.6,0.6-2.2,0.6c-1.5-0.2-2.8-2-4.3-3.9
			c-1.3-1.8-2.8-3.8-4-3.6c-1.1,0.2-1.7,2.5-2.4,4.6c-0.7,2.4-1.3,4.6-2.7,5.3c-1.4,0.7-3.6,0.1-5.9-0.7c-2.2-0.7-4.4-1.3-5.2-0.6
			c-0.8,0.9,0,3.2,0.8,5.3c0.8,2.2,1.6,4.4,0.9,5.7c-0.3,0.6-0.8,1.1-1.7,1.5c-1,0.5-2.2,0.9-3.4,1.4c-1.2,0.4-2.4,0.8-3.3,1.3
			c-0.8,0.5-1.3,0.9-1.3,1.4c-0.2,1.1,1.9,2.5,3.7,3.7c2,1.4,3.9,2.6,4.2,4.1c0.3,1.4-1,3.3-2.4,5.2c-1.3,1.8-2.8,3.9-2.2,5
			c0.6,1.1,3.1,1,5.4,0.9c2.4-0.1,4.6-0.2,5.6,0.8c1.1,1.1,1.1,3.3,1.2,5.8c0,2.2,0.1,4.7,1.1,5.2c0.4,0.2,1,0.1,1.9-0.4
			c0.9-0.5,1.9-1.3,2.9-2c1-0.8,2-1.6,3-2.1c0.9-0.5,1.6-0.6,2.2-0.6c1.5,0.2,2.8,2,4.2,3.9c1.3,1.8,2.8,3.8,4,3.6
			c1.1-0.2,1.7-2.5,2.4-4.6c0.7-2.4,1.3-4.6,2.7-5.3s3.6-0.1,5.9,0.7c2,0.6,4,1.2,4.9,0.7c0.1,0,0.2-0.1,0.2-0.2
			c0.8-0.9,0-3.2-0.8-5.3c-0.8-2.2-1.6-4.4-0.9-5.7c0.3-0.6,0.8-1.1,1.7-1.5c1-0.5,2.2-0.9,3.4-1.4c1.2-0.4,2.4-0.8,3.3-1.3
			c0.8-0.5,1.3-0.9,1.3-1.4c0.2-1.1-1.9-2.5-3.7-3.7c-2-1.4-3.9-2.6-4.2-4.1c-0.3-1.4,1-3.3,2.4-5.2c1.3-1.8,2.8-3.9,2.2-5
			C1197,432.8,1194.4,432.9,1192.2,433z"/>
		<path fill="#246C37" d="M1179.6,430.8c-1-0.5-2.5,0.2-3.9,0.9c-1.2,0.6-2.4,1.2-3.5,1.1c-1.2-0.1-2.4-0.8-3.5-1.5
			c-1.3-0.8-2.6-1.6-3.6-1.3c-0.9,0.3-1.5,1.8-2,3.3c-0.4,1.3-0.9,2.6-1.8,3.4c-0.8,0.7-2.2,1-3.4,1.3c-1.5,0.4-3.1,0.7-3.6,1.7
			c-0.5,1,0.2,2.5,0.9,3.9c0.6,1.2,1.2,2.4,1.1,3.5c-0.1,1.1-0.8,2.4-1.5,3.5c-0.8,1.3-1.6,2.6-1.3,3.6c0.3,1,1.8,1.5,3.3,2
			c1.3,0.4,2.6,0.9,3.4,1.8c0.7,0.8,1,2.2,1.3,3.4c0.3,1.5,0.7,3.1,1.7,3.6c1,0.5,2.5-0.2,3.9-0.9c1.2-0.6,2.4-1.2,3.5-1.1
			c1.2,0.1,2.4,0.8,3.5,1.5c1.3,0.8,2.6,1.6,3.6,1.3c0.9-0.3,1.5-1.8,2-3.3c0.4-1.1,0.8-2.3,1.5-3.1c0.1-0.1,0.2-0.2,0.3-0.3
			c0.8-0.7,2.2-1,3.4-1.3c1.5-0.4,3.1-0.7,3.6-1.7c0.5-1-0.2-2.5-0.9-3.9c-0.6-1.2-1.2-2.4-1.1-3.5c0.1-1.1,0.8-2.4,1.5-3.5
			c0.8-1.3,1.6-2.6,1.3-3.6c-0.3-1-1.8-1.5-3.3-2c-1.3-0.4-2.6-0.9-3.4-1.8c-0.7-0.8-1-2.2-1.3-3.4
			C1181,432.9,1180.6,431.3,1179.6,430.8z"/>
	</g>
	<g>
		<path fill="#3E8941" d="M715.8,190.4c-2.4,0.1-4.6,0.2-5.6-0.8c-1.1-1.1-1.1-3.3-1.2-5.8c0-2.2-0.1-4.7-1.1-5.2
			c-0.4-0.2-1-0.1-1.9,0.4c-0.9,0.5-1.9,1.3-2.9,2c-1,0.8-2.1,1.6-3,2.1c-0.9,0.5-1.6,0.6-2.2,0.6c-1.5-0.2-2.8-2-4.3-3.9
			c-1.3-1.8-2.9-3.8-4-3.6c-1.1,0.2-1.7,2.5-2.4,4.6c-0.7,2.4-1.3,4.6-2.7,5.3s-3.6,0.1-5.9-0.7c-2.2-0.7-4.4-1.3-5.2-0.6
			c-0.8,0.9,0,3.2,0.8,5.3c0.8,2.2,1.6,4.4,0.9,5.7c-0.3,0.6-0.8,1.1-1.7,1.5c-1,0.5-2.2,0.9-3.4,1.4c-1.2,0.4-2.4,0.8-3.3,1.3
			c-0.8,0.5-1.3,0.9-1.3,1.4c-0.2,1.1,1.9,2.5,3.7,3.8c2,1.4,3.9,2.6,4.2,4.2c0.3,1.4-1,3.3-2.4,5.2c-1.3,1.8-2.8,3.9-2.2,5
			c0.6,1.1,3.1,1,5.4,0.9c2.4-0.1,4.6-0.2,5.6,0.8c1.1,1.1,1.1,3.3,1.2,5.8c0,2.2,0.1,4.7,1.1,5.2c0.4,0.2,1,0.1,1.9-0.4
			c0.9-0.5,1.9-1.3,2.9-2c1-0.8,2-1.6,3-2.1c0.9-0.5,1.6-0.6,2.2-0.6c1.5,0.2,2.8,2,4.3,3.9c1.3,1.8,2.9,3.8,4,3.6
			c1.1-0.2,1.7-2.5,2.4-4.6c0.7-2.4,1.3-4.6,2.7-5.3s3.6-0.1,5.9,0.7c2,0.6,4,1.2,4.9,0.7c0.1,0,0.2-0.1,0.2-0.2
			c0.8-0.9,0-3.2-0.8-5.3c-0.8-2.2-1.6-4.4-0.9-5.7c0.3-0.6,0.8-1.1,1.7-1.5c1-0.5,2.2-0.9,3.4-1.4c1.2-0.4,2.4-0.8,3.3-1.3
			c0.8-0.5,1.3-0.9,1.3-1.4c0.2-1.1-1.9-2.5-3.7-3.8c-2-1.4-3.9-2.6-4.2-4.2c-0.3-1.4,1-3.3,2.4-5.2c1.3-1.8,2.8-3.9,2.2-5
			C720.7,190.3,718.1,190.4,715.8,190.4z"/>
		<path fill="#246C37" d="M703.3,188.3c-1-0.5-2.5,0.2-3.9,0.9c-1.2,0.6-2.4,1.2-3.5,1.1c-1.2-0.1-2.4-0.8-3.5-1.5
			c-1.3-0.8-2.6-1.6-3.6-1.3c-0.9,0.3-1.5,1.8-2,3.3c-0.5,1.3-0.9,2.6-1.8,3.4c-0.8,0.7-2.2,1-3.5,1.3c-1.5,0.4-3.1,0.7-3.6,1.7
			c-0.5,1,0.2,2.5,0.9,3.9c0.6,1.2,1.2,2.4,1.1,3.5c-0.1,1.2-0.8,2.4-1.5,3.5c-0.8,1.3-1.6,2.6-1.3,3.6c0.3,1,1.8,1.5,3.3,2
			c1.3,0.4,2.6,0.9,3.4,1.8c0.7,0.8,1,2.2,1.3,3.5c0.4,1.5,0.7,3.1,1.7,3.6c1,0.5,2.5-0.2,3.9-0.9c1.2-0.6,2.4-1.2,3.5-1.1
			c1.2,0.1,2.4,0.8,3.5,1.5c1.3,0.8,2.6,1.6,3.6,1.3c0.9-0.3,1.5-1.8,2-3.3c0.4-1.1,0.8-2.3,1.5-3.1c0.1-0.1,0.2-0.2,0.3-0.3
			c0.8-0.7,2.2-1,3.5-1.3c1.5-0.4,3.1-0.7,3.6-1.7c0.5-1-0.2-2.5-0.9-3.9c-0.6-1.2-1.2-2.4-1.1-3.5c0.1-1.2,0.8-2.4,1.5-3.5
			c0.8-1.3,1.6-2.6,1.3-3.6c-0.3-1-1.8-1.5-3.3-2c-1.3-0.4-2.6-0.9-3.4-1.8c-0.7-0.8-1-2.2-1.3-3.5
			C704.6,190.4,704.3,188.8,703.3,188.3z"/>
	</g>
	<path fill="#FFCF79" d="M749.3,853.7c-13.7-4.1-26.2-10-31.6-19.3c-7.3-12.4-10.4-28.6-3.8-41.9c6.5-13.2,20.5-20.7,34.3-25.7
		c16.1-5.9,33.1-9.5,50.2-10.6c9-0.6,18.2-0.5,26.7,2.6c12.5,4.6,22.1,15.5,26.3,28.2c4.2,12.6,3.3,26.6-1.1,39.1
		c-4.3,12.1-12,23.1-22.6,30.3c-10.6,7.2-24.2,10.2-36.6,7C780.6,860.7,764.2,858.2,749.3,853.7z"/>
	<path fill="#97C93D" d="M764.9,427.1c-3.3,2.8-6.6,5.7-9.9,8.8c-13.4,12.9-25.9,28.4-43.7,33.7c-20.9,6.2-44.3-4.3-57.8-21.5
		s-18.2-39.8-18.6-61.6c-0.4-28,6.5-57.1,24.4-78.7c15.9-19.2,38.9-31,61.6-41.2c88.4-39.8,213.5-102.6,294.9-15.2
		c15.4,16.5,27,37.1,30,59.4s-3.5,46.4-19.5,62.3c-14.6,14.4-35.5,20.8-56,21.7c-37.6,1.6-73-10.6-111.1-6.3
		C824.9,392.3,791.8,404.9,764.9,427.1z"/>
	<path fill="#A9CD38" d="M983.6,370.4c-53.7,9.6-111.2-18.2-162.4,0.8c-16.9,6.3-31.8,17.3-48.5,24.1c-16.8,6.8-37.6,8.4-51.5-3
		c-12.2-10-15.8-27.8-12.9-43.3c19.3-102.3,184.3-143.6,266.1-97.3c27.2,15.4,47.7,44.9,46.4,76.1c-0.5,13.2-5.5,27-16.2,34.8
		C998.4,367,991,369.1,983.6,370.4z"/>
	<g>
		<ellipse fill="#112113" cx="910.4" cy="311.3" rx="18.4" ry="6.5"/>
		<path fill="#FDD9CC" d="M910.4,317.8c0.9,0,1.8,0,2.7-0.1v-0.9v-165h-5.3v165v0.9C908.6,317.8,909.4,317.8,910.4,317.8z"/>
		<path fill="#F05352" d="M832.5,173.8c26,21.6,51.9-4.4,77.9,17.2c0-5.7,0-11.5,0-17.2s0-11.5,0-17.2
			C884.4,146.5,858.4,183.9,832.5,173.8z"/>
		<rect x="907.7" y="151.8" fill="#963C22" width="5.3" height="29.7"/>
		<rect x="907.7" y="211.2" fill="#963C22" width="5.3" height="29.7"/>
		<rect x="907.7" y="270.6" fill="#963C22" width="5.3" height="29.7"/>
		<rect x="907.7" y="181.5" fill="#FDD9CC" width="5.3" height="29.7"/>
		<rect x="907.7" y="240.9" fill="#FDD9CC" width="5.3" height="29.7"/>
	</g>
</g>
</svg>
