<?xml version="1.0" encoding="utf-8"?>
<!-- Generator: Adobe Illustrator 16.0.0, SVG Export Plug-In . SVG Version: 6.00 Build 0)  -->
<!DOCTYPE svg PUBLIC "-//W3C//DTD SVG 1.1//EN" "http://www.w3.org/Graphics/SVG/1.1/DTD/svg11.dtd">
<svg version="1.1" id="Layer_1" xmlns="http://www.w3.org/2000/svg" xmlns:xlink="http://www.w3.org/1999/xlink" x="0px" y="0px"
	 width="612px" height="792px" viewBox="0 0 612 792" enable-background="new 0 0 612 792" xml:space="preserve">
<path fill="#FFFDFD" d="M122.926,126.6c-3.604-0.117-7.077,1.361-9.491,4.04c0,0-52.234,56.876-52.234,155.199
	c-0.096,6.761,5.307,12.318,12.066,12.413c6.76,0.096,12.317-5.307,12.413-12.066c0.002-0.115,0.002-0.23,0-0.347
	c0-89.829,45.685-138.561,45.685-138.561c4.664-4.894,4.478-12.643-0.416-17.307C128.778,127.904,125.923,126.704,122.926,126.6z
	 M318.24,126.72c-33.8,0-61.199,27.399-61.199,61.199c0.017,2.045,0.137,4.088,0.358,6.12c-1.624,0.38-3.153,1.088-4.494,2.08
	L78.437,322.13c-0.768,0.57-1.466,1.228-2.08,1.96c-0.255,0.222-0.569,0.307-0.813,0.55c-0.009,0-0.017,0-0.024,0
	c-19.02,19.021-19.02,50.237,0,69.257s50.236,19.02,69.257,0c3.385-3.385,4.19-7.813,4.136-10.614
	c-0.056-2.803-0.662-4.772-1.315-6.599c-1.307-3.65-3.119-6.766-5.331-10.184c-4.422-6.835-10.528-14.385-17.236-21.54
	c-5.152-5.496-10.57-10.412-16.017-14.702l155.845-112.574c10.784,19.376,31.207,31.403,53.382,31.437c33.8,0,61.2-27.4,61.2-61.2
	S352.039,126.72,318.24,126.72z M196.486,138.864c-2.757-0.108-5.47,0.717-7.698,2.343c0,0-41.907,29.622-41.907,83.434
	c-0.096,6.76,5.307,12.317,12.066,12.413c6.761,0.096,12.317-5.308,12.413-12.067c0.002-0.115,0.002-0.23,0-0.346
	c0-41.196,31.532-63.447,31.532-63.447c5.577-3.822,7.001-11.44,3.179-17.018C203.891,140.994,200.339,139.026,196.486,138.864z
	 M402.175,170.995c3.146,15.568,1.944,32.076-4.041,47.621l21.731,11.666l-72.818,33.444l-0.024,0.072
	c-17.208,5.978-28.755,22.185-28.783,40.401c0.017,4.805,0.841,9.573,2.438,14.104l-0.023,0.048l48.458,186.637l-58.953,114.2
	l0.071,0.048c-2.756,4.681-4.216,10.011-4.23,15.443c0,16.899,13.699,30.6,30.6,30.6c12.37-0.005,23.521-7.457,28.257-18.886
	l62.73-125.962l14.271-109.754c2.448-19.584,1.22-39.153-4.9-58.737l-18.36-71.002l56.586-21.587l0.024-0.191
	c8.754-3.96,14.382-12.674,14.392-22.281c-0.003-8.11-4.022-15.693-10.734-20.248v-0.096L402.175,170.995z M90.748,346.969
	c4.497,3.105,10.699,8.62,16.424,14.726c5.663,6.041,10.818,12.56,14.08,17.5c-9.29,5.084-20.467,5.328-28.4-2.605
	C84.577,368.314,84.864,356.429,90.748,346.969z M463.828,431.501l-12.503,96.175l-9.107,18.313l36.337,96.892l0.048-0.023
	c3.586,12.901,15.306,22.424,29.356,22.424c16.904,0,30.601-13.696,30.601-30.6c0-4.492-1.035-8.731-2.773-12.575l0.096-0.048
	L463.828,431.501z"/>
</svg>
